<?xml version="1.0" encoding="UTF-8" standalone="no"?>
<!DOCTYPE svg PUBLIC "-//W3C//DTD SVG 1.1//EN" "http://www.w3.org/Graphics/SVG/1.1/DTD/svg11.dtd">
<svg xmlns="http://www.w3.org/2000/svg" version="1.1" viewBox="0 0 1506 696" width="1506.0pt" height="696.0pt">
<path d="M 0.00 0.00 L 1506.00 0.00 L 1506.00 696.00 L 0.00 696.00 L 0.00 0.00 Z" fill="#fefefe" />
<path d="M 10.65 10.22 C 14.10 10.27 17.55 10.27 21.00 10.26 C 508.67 10.26 996.33 10.26 1484.00 10.26 C 1487.79 10.27 1491.58 10.28 1495.37 10.22 C 1495.45 13.81 1495.45 17.41 1495.43 21.00 C 1495.43 239.00 1495.43 457.00 1495.43 675.00 C 1495.45 678.60 1495.46 682.19 1495.36 685.79 C 1491.57 685.72 1487.79 685.73 1484.00 685.74 C 996.33 685.74 508.67 685.74 21.00 685.74 C 17.54 685.73 14.09 685.73 10.63 685.78 C 10.55 682.18 10.56 678.59 10.57 675.00 C 10.57 458.33 10.57 241.67 10.57 25.00 C 10.59 20.23 10.49 15.46 10.64 10.69 L 10.65 10.22 Z" fill="#000000" />
<path d="M 51.22 50.57 C 519.07 50.57 986.93 50.57 1454.78 50.57 C 1454.81 248.85 1454.81 447.15 1454.78 645.43 C 986.93 645.43 519.07 645.43 51.22 645.43 C 51.19 447.15 51.19 248.85 51.22 50.57 Z" fill="#fefefe" />
<path d="M 91.50 91.32 C 94.10 90.40 97.26 90.96 100.00 90.83 C 535.00 90.84 970.00 90.83 1405.00 90.83 C 1408.21 90.78 1411.39 90.75 1414.58 91.16 C 1414.52 262.38 1414.52 433.62 1414.58 604.84 C 1411.39 605.26 1408.21 605.22 1405.00 605.17 C 970.33 605.17 535.67 605.17 101.00 605.17 C 97.79 605.22 94.61 605.25 91.42 604.84 C 91.53 434.35 91.36 261.70 91.50 91.32 Z" fill="#000000" />
<path d="M 1021.55 164.68 C 1049.97 164.74 1078.40 164.70 1106.83 164.70 C 1106.51 168.82 1105.68 172.84 1104.95 176.89 C 1102.08 193.15 1099.27 209.42 1096.38 225.68 C 1067.78 225.69 1039.16 225.80 1010.56 225.62 C 1014.45 205.38 1017.46 184.88 1021.55 164.68 Z" fill="#fefefe" />
<path d="M 298.12 248.09 C 310.00 246.96 323.12 246.88 335.00 248.21 C 345.33 249.18 355.63 251.35 365.40 254.86 C 380.83 260.42 395.03 269.89 405.04 283.00 C 416.12 297.17 421.41 315.15 421.68 333.00 C 422.29 351.30 418.49 369.84 412.53 387.08 C 403.61 412.41 387.15 434.82 364.91 450.03 C 343.35 465.03 318.06 472.89 291.99 474.86 C 275.21 476.24 258.06 475.57 241.59 471.95 C 223.76 468.01 206.92 460.11 193.93 447.07 C 183.06 436.52 176.02 422.67 173.10 407.85 C 170.90 397.67 171.08 387.42 171.54 377.03 C 172.89 360.85 176.85 344.80 183.00 329.79 C 192.21 307.32 207.62 287.51 227.45 273.43 C 248.23 258.60 272.78 250.38 298.12 248.09 Z" fill="#fefefe" />
<path d="M 578.00 247.60 C 595.80 247.03 613.38 246.94 631.09 249.18 C 644.58 250.92 659.35 253.97 671.13 261.07 C 680.23 266.45 686.95 275.25 689.86 285.40 C 693.34 296.96 692.46 308.27 691.08 320.06 C 689.33 333.76 686.62 347.42 684.30 361.04 C 679.88 386.05 675.50 411.06 671.13 436.08 C 670.11 441.72 668.50 447.25 669.70 453.01 C 670.95 457.86 673.90 461.73 677.42 465.18 C 677.10 466.57 676.79 467.97 676.50 469.37 C 647.14 469.39 617.75 469.22 588.39 469.45 C 587.52 466.64 587.80 463.88 587.78 461.00 C 587.81 456.10 587.80 451.20 587.74 446.30 C 563.89 465.82 533.65 475.38 503.00 475.47 C 492.37 475.69 481.46 474.47 471.32 471.19 C 460.54 467.67 449.95 461.11 443.14 451.93 C 436.16 442.46 433.98 430.54 434.69 418.99 C 436.03 404.08 440.46 389.59 449.62 377.58 C 457.88 366.42 469.95 358.26 482.62 352.88 C 491.68 348.93 501.90 346.82 511.57 344.85 C 528.37 341.64 545.36 339.28 562.33 337.13 C 572.70 335.68 583.91 333.81 593.52 329.48 C 598.00 327.34 602.64 324.59 604.95 320.00 C 607.41 314.68 607.22 307.68 602.36 303.74 C 597.48 299.81 590.03 299.07 584.00 298.70 C 574.95 298.46 564.69 299.70 557.22 305.26 C 552.21 308.86 549.51 313.99 547.47 319.67 C 520.05 319.63 492.62 319.68 465.19 319.65 C 467.79 303.35 475.68 288.02 487.98 276.93 C 503.00 263.06 523.73 255.65 543.48 251.75 C 554.89 249.46 566.41 248.39 578.00 247.60 Z" fill="#fefefe" />
<path d="M 867.00 247.58 C 883.41 248.73 900.09 251.01 915.22 257.85 C 925.75 262.60 935.19 269.93 940.90 280.13 C 946.94 290.90 948.13 303.13 947.19 315.25 C 921.26 315.29 895.33 315.24 869.40 315.28 C 869.35 309.79 868.80 304.33 864.97 300.06 C 860.65 295.47 854.05 294.24 848.00 294.26 C 840.78 294.15 832.23 294.92 826.25 299.40 C 822.26 302.36 819.19 307.75 820.43 312.82 C 821.67 316.21 825.42 318.78 828.49 320.40 C 836.57 324.64 846.22 326.86 855.06 328.92 C 869.54 332.39 884.05 335.96 898.26 340.43 C 908.44 343.47 918.50 348.48 926.52 355.52 C 934.20 362.20 939.52 371.15 941.19 381.24 C 944.45 406.31 932.51 432.37 912.55 447.59 C 892.30 463.36 868.16 470.55 842.99 473.66 C 828.71 475.46 814.37 475.74 799.99 475.34 C 782.17 474.32 763.96 471.99 747.70 464.14 C 736.38 458.68 726.70 450.25 721.22 438.78 C 715.58 427.16 714.87 414.97 715.65 402.27 C 742.88 402.12 770.12 402.22 797.34 402.23 C 797.10 406.06 796.68 410.37 797.69 414.10 C 799.52 420.02 804.80 424.43 810.47 426.53 C 818.50 429.42 827.84 428.97 836.03 426.97 C 842.36 425.43 848.03 421.80 851.15 415.97 C 852.88 412.66 854.24 408.59 853.27 404.85 C 852.04 400.79 847.79 397.68 844.19 395.78 C 835.42 391.18 824.74 389.28 815.13 386.99 C 800.97 383.55 786.63 380.37 772.73 375.98 C 760.10 371.74 747.04 363.30 740.81 351.16 C 734.90 340.16 735.22 326.60 738.00 314.75 C 741.06 300.64 748.25 287.67 758.75 277.75 C 773.17 263.91 793.17 255.46 812.48 251.24 C 830.48 247.18 848.64 246.81 867.00 247.58 Z" fill="#fefefe" />
<path d="M 1256.06 247.58 C 1272.03 248.67 1288.03 250.83 1302.88 257.16 C 1314.78 262.17 1325.71 270.68 1331.36 282.53 C 1336.45 292.90 1337.22 303.91 1336.34 315.27 C 1310.42 315.26 1284.49 315.26 1258.56 315.27 C 1258.50 311.42 1258.39 307.76 1256.80 304.18 C 1255.32 300.59 1252.33 297.82 1248.77 296.33 C 1243.32 293.87 1236.87 294.15 1231.01 294.43 C 1224.83 294.92 1217.68 296.59 1213.35 301.36 C 1210.52 304.36 1208.38 309.17 1209.75 313.28 C 1211.76 317.03 1215.76 319.56 1219.52 321.31 C 1229.18 325.86 1240.58 327.94 1250.94 330.51 C 1264.65 333.93 1278.52 337.33 1291.90 341.90 C 1301.73 345.39 1311.37 350.80 1318.65 358.36 C 1324.80 364.50 1328.88 372.38 1330.34 380.95 C 1331.95 392.83 1330.16 404.81 1325.71 415.90 C 1319.54 431.80 1307.84 444.47 1293.49 453.43 C 1271.55 467.57 1244.62 473.24 1218.89 474.87 C 1208.98 475.77 1198.93 475.47 1189.00 475.34 C 1170.71 474.28 1151.28 471.71 1134.86 463.08 C 1123.21 457.09 1113.56 447.45 1108.83 435.11 C 1104.65 424.48 1104.17 413.61 1104.80 402.32 C 1132.03 402.04 1159.29 402.29 1186.53 402.19 C 1186.15 406.87 1185.60 411.80 1187.72 416.16 C 1190.08 421.38 1195.17 424.98 1200.46 426.80 C 1208.23 429.38 1217.14 428.90 1225.02 427.02 C 1231.34 425.53 1237.06 422.03 1240.26 416.23 C 1242.24 412.73 1243.64 407.73 1242.11 403.85 C 1240.57 400.45 1237.07 397.79 1233.87 396.02 C 1227.24 392.43 1219.33 390.46 1212.03 388.76 C 1198.93 385.76 1185.86 382.62 1172.87 379.19 C 1165.95 377.22 1159.27 375.57 1152.86 372.17 C 1143.12 367.19 1134.65 360.45 1129.69 350.48 C 1123.96 339.02 1124.43 326.13 1127.42 313.97 C 1131.10 297.04 1141.13 282.29 1154.85 271.84 C 1170.62 259.84 1190.55 252.81 1209.98 249.65 C 1225.27 247.02 1240.60 246.98 1256.06 247.58 Z" fill="#fefefe" />
<path d="M 1005.76 253.52 C 1034.03 253.32 1062.70 253.48 1091.01 253.44 C 1090.83 255.92 1090.58 258.40 1090.12 260.84 C 1077.85 330.32 1065.76 399.90 1053.42 469.35 C 1024.96 469.34 996.51 469.35 968.06 469.35 C 968.18 467.88 968.33 466.41 968.51 464.94 C 976.52 418.92 984.70 372.96 992.72 326.95 C 997.13 302.55 1001.18 277.85 1005.76 253.52 Z" fill="#fefefe" />
<path d="M 321.25 307.74 C 328.04 311.22 331.76 317.94 333.64 325.09 C 336.82 337.62 335.88 350.95 333.20 363.48 C 330.86 375.19 327.20 387.47 320.88 397.68 C 315.57 406.21 307.90 413.46 298.03 416.22 C 292.79 417.88 287.35 417.90 281.91 417.53 C 273.59 416.74 266.08 412.13 262.36 404.53 C 257.41 394.65 257.09 382.07 258.19 371.29 C 259.68 355.56 263.18 339.44 272.23 326.19 C 278.25 317.36 285.86 309.82 296.31 306.62 C 304.11 304.31 313.85 303.87 321.25 307.74 Z" fill="#000000" />
<path d="M 595.93 374.01 C 594.99 387.33 591.03 401.90 582.47 412.44 C 575.23 421.38 564.35 426.11 552.99 426.71 C 546.00 426.94 538.48 427.04 532.00 424.01 C 528.01 422.16 524.94 418.56 524.60 414.06 C 524.14 407.64 526.62 400.70 531.03 396.00 C 537.26 389.48 545.43 387.36 553.85 385.12 C 568.04 381.72 582.26 379.38 595.93 374.01 Z" fill="#000000" />
</svg>