<?xml version="1.0" encoding="UTF-8" standalone="no"?>
<!-- Created with Inkscape (http://www.inkscape.org/) -->

<svg
   width="540"
   height="540"
   viewBox="0 0 142.87499 142.87499"
   version="1.1"
   id="svg1"
   xml:space="preserve"
   xmlns:xlink="http://www.w3.org/1999/xlink"
   xmlns="http://www.w3.org/2000/svg"
   xmlns:svg="http://www.w3.org/2000/svg"><defs
     id="defs1" /><g
     id="layer1"
     style="display:inline;opacity:1;mix-blend-mode:multiply"><g
       id="g103"
       transform="translate(-72.023953,-72.4798)"><circle
         style="display:inline;opacity:1;mix-blend-mode:multiply;fill:none;fill-opacity:0.0901961;stroke:#000000;stroke-width:0.271071"
         id="path1"
         cx="142.87498"
         cy="142.87498"
         r="64.382698" /><path
         style="opacity:1;fill:#ffff00;fill-opacity:1;stroke:#000000;stroke-width:0.17914"
         id="path25"
         d="m 121.25551,135.38679 -4.06477,0.6558 -1.76416,3.72025 -1.87978,-3.66318 -4.08332,-0.52819 2.903,-2.91977 -0.75948,-4.04668 3.67394,1.85866 3.61394,-1.9728 -0.63238,4.06848 z"
         transform="matrix(1.5131791,0,0,1.5131791,-73.320463,-73.320462)" /><use
         id="use25"
         xlink:href="#path25"
         transform="matrix(0.38610704,1.0366855,-1.0366855,0.38610704,197.82546,1.5436546)" /><use
         id="use26"
         xlink:href="#path25"
         transform="matrix(0.13591632,-0.26891606,0.26891606,0.13591632,60.398032,180.16289)" /><use
         id="use27"
         xlink:href="#path25"
         transform="matrix(0.26889913,-0.07121983,0.07121983,0.26889913,78.365767,110.27117)" /><use
         id="use28"
         xlink:href="#path25"
         transform="matrix(0.24269098,-0.23057288,0.23057288,0.24269098,62.227008,113.29968)" /><use
         id="use29"
         xlink:href="#path25"
         transform="matrix(0.48566264,-0.70906811,0.70906811,0.48566264,1.0421002,136.46179)" /><use
         id="use30"
         xlink:href="#path25"
         transform="matrix(0.53019511,0.35554962,-0.35554962,0.53019511,119.56904,33.637034)" /><use
         id="use31"
         xlink:href="#path25"
         transform="matrix(0.09593941,-0.46443635,0.46443635,0.09593941,89.441023,162.76188)" /><use
         id="use32"
         xlink:href="#path25"
         transform="matrix(0.30512497,-0.26188621,0.26188621,0.30512497,77.399995,135.82439)" /><use
         id="use33"
         xlink:href="#path25"
         transform="matrix(0.24829164,0.15510559,-0.15510559,0.24829164,140.41334,108.53997)" /><use
         id="use34"
         xlink:href="#path25"
         transform="matrix(0.48859527,-0.00308732,0.00308732,0.48859527,115.69705,102.12134)" /><use
         id="use35"
         xlink:href="#path25"
         transform="matrix(0.07230437,0.61717738,-0.61717738,0.07230437,230.90978,82.349879)" /><use
         id="use36"
         xlink:href="#path25"
         transform="matrix(0.11295208,0.27885758,-0.27885758,0.11295208,179.86423,97.71858)" /><use
         id="use37"
         xlink:href="#path25"
         transform="matrix(0.00597411,0.45096202,-0.45096202,0.00597411,209.76654,68.440343)" /><use
         id="use38"
         xlink:href="#path25"
         transform="matrix(0.40532761,0.51337843,-0.51337843,0.40532761,154.75544,69.683823)" /><use
         id="use39"
         xlink:href="#path25"
         transform="matrix(0.53997536,0.01619632,-0.01619632,0.53997536,87.829689,34.632661)" /><use
         id="use40"
         xlink:href="#path25"
         transform="matrix(0.14914105,0.37291925,-0.37291925,0.14914105,155.46422,106.48388)" /><use
         id="use44"
         xlink:href="#path25"
         transform="matrix(0.30666597,0.31186163,-0.31186163,0.30666597,172.26062,35.588482)" /><use
         id="use46"
         xlink:href="#path25"
         transform="matrix(0.37882083,-0.313424,0.313424,0.37882083,96.944441,124.28528)" /><use
         id="use48"
         xlink:href="#path25"
         transform="matrix(0.16140183,-0.27971323,0.27971323,0.16140183,119.13358,185.06618)" /><use
         id="use49"
         xlink:href="#path25"
         transform="matrix(0.32372303,-0.10209546,0.10209546,0.32372303,114.74517,144.74566)" /><use
         id="use52"
         xlink:href="#path25"
         transform="matrix(0.1892621,0.24196006,-0.24196006,0.1892621,171.75611,38.842391)" /><use
         id="use53"
         xlink:href="#path25"
         transform="matrix(0.26516588,-0.06177638,0.06177638,0.26516588,115.67708,62.413491)" /><use
         id="use54"
         xlink:href="#path25"
         transform="matrix(0.09590048,0.33874563,-0.33874563,0.09590048,174.72994,43.682001)" /><use
         id="use55"
         xlink:href="#path25"
         transform="matrix(0.12452998,-0.28097482,0.28097482,0.12452998,39.995931,174.43956)" /><use
         id="use62"
         xlink:href="#path25"
         transform="matrix(0.04770096,-0.52082373,0.52082373,0.04770096,55.168097,141.07424)" /><use
         id="use79"
         xlink:href="#path25"
         transform="matrix(0.44848146,-0.01779492,0.01779492,0.44848146,132.78873,51.083824)" /><use
         id="use81"
         xlink:href="#path25"
         transform="matrix(0.14899418,0.32651232,-0.32651232,0.14899418,207.66158,107.96602)" /><use
         id="use82"
         xlink:href="#path25"
         transform="matrix(0.21151865,-0.36908727,0.36908727,0.21151865,122.17629,168.42207)" /><use
         id="use83"
         xlink:href="#path25"
         transform="matrix(0.17987115,0.39105569,-0.39105569,0.17987115,212.27765,66.826905)" /><use
         id="use85"
         xlink:href="#path25"
         transform="matrix(0.38129583,-0.13548002,0.13548002,0.38129583,127.19806,84.921457)" /><use
         id="use86"
         xlink:href="#path25"
         transform="matrix(0.24581044,-0.37471673,0.37471673,0.24581044,55.557243,119.42193)" /><use
         id="use87"
         xlink:href="#path25"
         transform="matrix(0.39670381,0.04506609,-0.04506609,0.39670381,61.288496,86.739952)" /><use
         id="use88"
         xlink:href="#path25"
         transform="matrix(0.16835575,0.19908459,-0.19908459,0.16835575,95.953784,105.39049)" /><use
         id="use94"
         xlink:href="#path25"
         transform="matrix(0.25045457,0.214525,-0.214525,0.25045457,195.981,93.27521)" /><use
         id="use95"
         xlink:href="#path25"
         transform="matrix(0.22711519,-0.26242377,0.26242377,0.22711519,134.91795,127.97114)" /><use
         id="use96"
         xlink:href="#path25"
         transform="matrix(0.79608352,0.22614056,-0.22614056,0.79608352,59.405168,-24.911588)" /><use
         id="use97"
         xlink:href="#path25"
         transform="matrix(0.2416929,0.2240152,-0.2240152,0.2416929,167.5717,89.96406)" /><use
         id="use98"
         xlink:href="#path25"
         transform="matrix(5.3771122e-4,0.27430434,-0.27430434,5.3771122e-4,199.13553,67.640676)" /><use
         id="use99"
         xlink:href="#path25"
         transform="matrix(0.331787,0.08618105,-0.08618105,0.331787,120.10757,121.23108)" /><use
         id="use100"
         xlink:href="#path25"
         transform="matrix(0.29618258,0.0542221,-0.0542221,0.29618258,103.67985,110.83017)" /><use
         id="use102"
         xlink:href="#path25"
         transform="matrix(0.40207926,-0.08764946,0.08764946,0.40207926,41.55292,71.330909)" /><g
         id="g4"
         transform="matrix(1.5131791,0,0,1.5131791,-79.675432,-73.110615)"
         style="stroke:none"><circle
           style="display:inline;fill:none;fill-opacity:0.0901961;stroke:none;stroke-width:0.157115"
           id="circle4"
           cx="-140.71323"
           cy="-147.7585"
           r="37.31673"
           transform="matrix(0,-1,-1,0,0,0)" /><text
           xml:space="preserve"
           style="font-style:normal;font-variant:normal;font-weight:normal;font-stretch:normal;font-size:16.9333px;font-family:'Matura MT Script Capitals';-inkscape-font-specification:'Matura MT Script Capitals';text-align:center;writing-mode:lr-tb;direction:ltr;text-anchor:middle;display:inline;opacity:1;mix-blend-mode:normal;fill:#00ff00;fill-opacity:1;stroke:#000000;stroke-width:0.17914"
           id="text4"><textPath
             xlink:href="#circle4"
             startOffset="50%"
             id="textPath4"
             style="font-style:normal;font-variant:normal;font-weight:normal;font-stretch:normal;font-family:Verdana;-inkscape-font-specification:Verdana">manu guix</textPath></text></g></g></g></svg>
