<?xml version="1.0" standalone="no"?>
<!DOCTYPE svg PUBLIC "-//W3C//DTD SVG 20010904//EN"
 "http://www.w3.org/TR/2001/REC-SVG-20010904/DTD/svg10.dtd">
<svg version="1.0" xmlns="http://www.w3.org/2000/svg"
 width="1007.000000pt" height="1280.000000pt" viewBox="0 0 1007.000000 1280.000000"
 preserveAspectRatio="xMidYMid meet">
<metadata>
Created by potrace 1.15, written by Peter Selinger 2001-2017
</metadata>
<g transform="translate(0.000000,1280.000000) scale(0.100000,-0.100000)"
fill="#fff" stroke="none">
<path d="M860 12794 c-71 -12 -243 -61 -303 -85 -277 -111 -457 -336 -529
-659 -20 -90 -23 -131 -22 -290 1 -262 16 -333 189 -895 160 -521 197 -647
384 -1300 263 -913 671 -2447 842 -3155 8 -36 1 -157 -39 -635 l-49 -590 -385
-590 c-212 -324 -388 -601 -391 -614 -6 -24 21 -112 274 -916 66 -209 142
-450 169 -535 818 -2601 777 -2472 810 -2502 l30 -28 2875 0 2875 0 30 27 c27
26 71 160 507 1553 l477 1525 7 175 c56 1330 390 3068 1369 7127 81 333 83
352 84 553 0 203 -16 301 -70 437 -94 234 -277 410 -515 495 -185 65 -449 82
-635 40 -341 -77 -603 -293 -777 -638 -142 -283 -584 -1883 -974 -3521 -48
-205 -89 -368 -91 -363 -2 5 6 146 18 312 24 335 22 409 -16 558 -42 165 -120
304 -236 420 -203 204 -542 321 -842 290 -238 -24 -437 -100 -592 -226 l-41
-33 -32 69 c-67 145 -198 305 -324 394 -184 131 -412 198 -672 198 -106 -1
-148 -5 -230 -26 -393 -101 -649 -397 -719 -831 -9 -55 -27 -307 -41 -559 -14
-253 -26 -460 -28 -462 -1 -2 -29 95 -61 214 -277 1024 -1067 3813 -1152 4067
-102 306 -233 534 -409 711 -189 191 -385 281 -625 289 -63 2 -126 2 -140 -1z"/>
</g>
</svg>
