<svg xmlns:dc="http://purl.org/dc/elements/1.1/" xmlns:cc="http://creativecommons.org/ns#" xmlns:rdf="http://www.w3.org/1999/02/22-rdf-syntax-ns#" xmlns:svg="http://www.w3.org/2000/svg" xmlns="http://www.w3.org/2000/svg" xmlns:sodipodi="http://sodipodi.sourceforge.net/DTD/sodipodi-0.dtd" xmlns:inkscape="http://www.inkscape.org/namespaces/inkscape" viewBox="0 0 507.59283 500.66068" height="40" width="40" xml:space="preserve" id="svg2" version="1.1" inkscape:version="0.48.5 r10040" sodipodi:docname="rhcp_2.svg"><sodipodi:namedview pagecolor="#ffffff" bordercolor="#666666" borderopacity="1" objecttolerance="10" gridtolerance="10" guidetolerance="10" inkscape:pageopacity="0" inkscape:pageshadow="2" inkscape:window-width="1280" inkscape:window-height="672" id="namedview10" showgrid="false" fit-margin-top="0" fit-margin-left="0" fit-margin-right="0" fit-margin-bottom="0" inkscape:zoom="0.83098592" inkscape:cx="439.49656" inkscape:cy="251.83876" inkscape:window-x="0" inkscape:window-y="1" inkscape:window-maximized="1" inkscape:current-layer="g12"/><metadata id="metadata8"><rdf:RDF><cc:Work rdf:about=""><dc:format>image/svg+xml</dc:format><dc:type rdf:resource="http://purl.org/dc/dcmitype/StillImage"/></cc:Work></rdf:RDF></metadata><defs id="defs6"/><g transform="matrix(1.3333333,0,0,-1.3333333,-30.174533,533.932)" id="g10"><g transform="scale(0.1,0.1)" id="g12"><path id="path16" style="fill:white;fill-opacity:1;fill-rule:evenodd;stroke:none" d="m 226.309,2118.43 29.191,226.73 c 21.5,166.55 141.078,213.45 301.383,192.79 162.203,-20.84 268.738,-94.16 247.012,-263.44 l -29.227,-226.69 z m 140.535,132.16 310.523,-39.99 5.285,40.77 c 12.993,101.58 -44.179,123.42 -139.781,135.74 -88.621,11.41 -158.074,3 -170.629,-95.02 z m 3648.606,151.07 17.1,-251.98 c 7.23,-107.2 -40.93,-172.61 -153.2,-180.22 -121.51,-8.26 -185.49,55.26 -193.17,168.19 l -6.18,91.35 -208.55,-14.13 -10.13,149.21 z m -232.27,-164.84 c 3.11,-45.82 0.77,-128.47 77.35,-122.77 69.83,5.21 58.87,83.4 55.64,130.97 z M 965.883,3261.6 c -109.586,152.32 -97.574,312.11 36.307,403.08 133.57,90.76 283.48,71.3 393.85,-92.32 82.72,-122.63 125.24,-275.52 -34.68,-397.58 -148.84,-113.59 -297.44,-49.44 -395.477,86.82 z m 124.327,91.28 c 41.77,-57.49 113.23,-131.39 190.59,-73.49 77.22,57.8 29.22,144.13 -12.35,205.28 -39.67,58.35 -114.44,125.18 -189.65,71.44 -67.57,-48.29 -40.68,-131.53 11.41,-203.23 z m 562.43,-2672.54 -126.09,57.902 c 19.22,50.789 18.63,100.035 -33.11,127.891 -29.46,15.855 -76.8,17.101 -96.65,-17.078 -29.25,-50.332 35.54,-100.633 62.42,-125.094 60.38,-54.961 124.9,-141.512 67.69,-237.594 -56.95,-95.676 -165.13,-85.687 -254.22,-37.765 -100.12,53.863 -154.93,129.937 -109.55,246.421 l 128.59,-59.765 c -14.79,-44.203 -2.63,-82.453 38.59,-104.625 23.3,-12.524 57.95,-12.246 72.96,15.664 14.65,27.23 -9.78,48.16 -26.66,62.516 -78.16,66.457 -191.94,172.589 -112.92,298.292 71.93,114.435 190.87,100.795 290.95,43.024 107.85,-62.246 155.54,-136.895 98,-269.789 z m 432.9,-198.41 -72.04,1.832 c -111.65,2.019 -104.82,-124.961 -5.18,-126.899 l 75.02,-1.886 z m 153.77,318.422 -10.78,-550.817 -279.05,5.547 c -83.74,1.664 -168.86,30.75 -166.34,157.93 1.57,78.738 40.1,121.308 109.49,142.82 12.41,3.848 12.3,12.918 -0.17,19.406 -30.74,16.008 -52.75,48 -69.42,83.035 l -65.08,152.215 165.89,-3.285 76.32,-166.867 c 15.68,-30.906 34.96,-63.398 72.57,-64.129 l 14.85,-0.301 4.34,227.383 z m 1768.99,1007.038 -112.49,-396.07 -113.07,31.23 69.89,253.15 -97.6,26.97 -64.78,-234.54 -109.62,30.28 64.75,234.5 -119.73,33.06 -72.19,-261.45 -118.12,32.63 111.87,405.16 z m -141.21,1054.84 51.25,-141.18 -519.31,-188.51 -51.22,141.21 z m -324.91,500.11 87.92,-122.98 -342.29,-244.6 140.74,-196.92 -108.46,-77.52 -228.6,319.92 z m -281.42,243.32 118.21,-91.15 -341.87,-440.1 -118.23,91.14 z m -1958.12,241.47 450.86,132.35 37.58,-127.9 -153.22,-44.96 118.85,-404.87 -144.16,-42.28 -118.82,404.83 -153.55,-45.09 z m -886.515,-917.02 80.641,122.37 168.863,-111.3 98.867,150 -168.906,111.28 87.074,132.12 467.046,-307.79 -87.05,-132.11 -186.875,123.16 -98.836,-150 186.864,-123.16 -80.649,-122.32 z m 1510.525,776.52 c -5.67,177.71 88.27,295.03 241.61,297.8 121.7,2.2 208.3,-56.06 240.69,-170.47 l -130.19,-29.16 c -12.22,43.91 -38.41,80.44 -92.49,78.89 -78.64,-2.25 -111.52,-87.07 -108.46,-170.98 2.46,-67.28 14.46,-163.18 105.9,-158.53 65.9,3.35 91.54,52.93 100.56,106.59 l 129.21,-41.81 c -20.64,-99.26 -79.58,-181.07 -221.72,-189.63 -177.08,-10.66 -260.04,118.33 -265.11,277.3 z m 741.45,236.95 132.27,-63.07 -87.04,-182.55 162.17,-77.32 87,182.59 142.86,-68.08 -240.73,-504.9 -142.81,68.07 96.32,202 -162.16,77.29 -96.3,-201.99 -132.26,63.08 z M 3789.6,1207.11 3655.08,993.328 c -57.25,-90.887 -134.69,-115.426 -229.93,-55.48 -103.08,64.832 -117.41,153.832 -57.15,249.662 l 48.79,77.48 -176.92,111.33 79.64,126.59 z m -284.8,3.46 c -24.47,-38.87 -75.01,-104.31 -9.75,-144.77 59.52,-36.9 96.69,32.74 122.07,73.12 z M 3403.58,709.785 3198.91,561.746 c -87.05,-62.91 -168.06,-56.742 -234.01,34.453 -71.39,98.645 -51.42,186.563 40.3,252.938 l 74.19,53.636 -122.51,169.367 121.16,87.66 z m -262.89,109.629 c -37.23,-26.914 -108.56,-68.734 -63.14,-130.656 41.41,-56.457 101.93,-5.746 140.55,22.215 z m -223.37,-430.512 -390.12,-131.66 -36.83,106.606 248.2,85.8 -30.89,89.442 -229.97,-79.477 -35.18,101.821 229.92,79.472 -37.52,108.594 -256.35,-88.617 -40.02,115.828 397.25,137.316 z M 376.066,1402.32 l -119.503,394.01 107.683,33.51 78.067,-250.74 90.359,28.11 -72.317,232.32 102.868,32.01 72.312,-232.27 109.699,34.13 -80.625,258.99 117.004,36.4 124.95,-401.31 z m 480.5,-342.37 -41.039,61.27 c -64.293,94.51 -166.363,13.74 -109.121,-70.65 l 42.762,-63.82 z M 1213.55,1119.59 746.848,803.102 586.578,1039.6 c -48.109,70.97 -74.09,159.29 33.695,232.34 66.723,45.23 125.086,38.15 184.047,-7.1 10.567,-8.1 18.078,-2.64 16.125,11.61 -4.781,35.14 8.95,72.45 28.383,107.07 l 88.75,144.34 95.282,-140.57 -94.348,-162.41 c -16.563,-31.36 -32.352,-66.68 -10.719,-98.56 l 8.52,-12.56 192.607,130.74 84.63,-124.91" inkscape:connector-curvature="0"/><path id="path18" style="fill:#bd0837;fill-opacity:1;fill-rule:evenodd;stroke:none" d="m 2767.27,3117.37 352.88,-352.88 -387.97,-387.97 h 548.68 V 1877.48 H 2732.18 L 3120.15,1489.51 2767.27,1136.63 2379.3,1524.6 V 975.926 H 1880.25 V 1524.6 l -387.96,-387.97 -352.88,352.88 387.97,387.97 H 978.707 v 499.04 h 548.673 l -387.97,387.97 352.88,352.88 387.96,-387.96 v 548.66 h 499.05 v -548.66 l 387.97,387.96" inkscape:connector-curvature="0"/></g></g></svg>
