<!--!
  Font Awesome Free 6.6.0 by @fontawesome
  https://fontawesome.com 
  License - https://fontawesome.com/license/free
  Copyright 2024 Fonticons, Inc.
-->
<svg xmlns="http://www.w3.org/2000/svg">
  <symbol id="playbutton" xmlns="http://www.w3.org/2000/svg" viewBox="0 0 384 512">
    <path d="M73 39c-14.8-9.1-33.4-9.4-48.5-.9S0 62.6 0 80L0 432c0 17.4 9.4 33.4 24.5 41.9s33.7 8.1 48.5-.9L361 297c14.3-8.7 23-24.2 23-41s-8.7-32.2-23-41L73 39z" />
  </symbol>
  <symbol id="pausebutton" xmlns="http://www.w3.org/2000/svg" viewBox="0 0 320 512">
    <path d="M48 64C21.5 64 0 85.5 0 112L0 400c0 26.5 21.5 48 48 48l32 0c26.5 0 48-21.5 48-48l0-288c0-26.5-21.5-48-48-48L48 64zm192 0c-26.5 0-48 21.5-48 48l0 288c0 26.5 21.5 48 48 48l32 0c26.5 0 48-21.5 48-48l0-288c0-26.5-21.5-48-48-48l-32 0z" />
  </symbol>
  <symbol id="stopbutton" xmlns="http://www.w3.org/2000/svg" viewBox="0 0 384 512">
    <path d="M0 128C0 92.7 28.7 64 64 64H320c35.3 0 64 28.7 64 64V384c0 35.3-28.7 64-64 64H64c-35.3 0-64-28.7-64-64V128z" />
  </symbol>
  <symbol id="infinitybutton" xmlns="http://www.w3.org/2000/svg" viewBox="0 0 640 512">
    <path d="M0 241.1C0 161 65 96 145.1 96c38.5 0 75.4 15.3 102.6 42.5L320 210.7l72.2-72.2C419.5 111.3 456.4 96 494.9 96C575 96 640 161 640 241.1l0 29.7C640 351 575 416 494.9 416c-38.5 0-75.4-15.3-102.6-42.5L320 301.3l-72.2 72.2C220.5 400.7 183.6 416 145.1 416C65 416 0 351 0 270.9l0-29.7zM274.7 256l-72.2-72.2c-15.2-15.2-35.9-23.8-57.4-23.8C100.3 160 64 196.3 64 241.1l0 29.7c0 44.8 36.3 81.1 81.1 81.1c21.5 0 42.2-8.5 57.4-23.8L274.7 256zm90.5 0l72.2 72.2c15.2 15.2 35.9 23.8 57.4 23.8c44.8 0 81.1-36.3 81.1-81.1l0-29.7c0-44.8-36.3-81.1-81.1-81.1c-21.5 0-42.2 8.5-57.4 23.8L365.3 256z" />
  </symbol>
  <symbol id="downloadbutton" xmlns="http://www.w3.org/2000/svg" viewBox="0 0 512 512">
    <path d="M288 32c0-17.7-14.3-32-32-32s-32 14.3-32 32l0 242.7-73.4-73.4c-12.5-12.5-32.8-12.5-45.3 0s-12.5 32.8 0 45.3l128 128c12.5 12.5 32.8 12.5 45.3 0l128-128c12.5-12.5 12.5-32.8 0-45.3s-32.8-12.5-45.3 0L288 274.7 288 32zM64 352c-35.3 0-64 28.7-64 64l0 32c0 35.3 28.7 64 64 64l384 0c35.3 0 64-28.7 64-64l0-32c0-35.3-28.7-64-64-64l-101.5 0-45.3 45.3c-25 25-65.5 25-90.5 0L165.5 352 64 352zm368 56a24 24 0 1 1 0 48 24 24 0 1 1 0-48z" />
  </symbol>
  <symbol id='playlistbutton' xmlns="http://www.w3.org/2000/svg" viewBox="0 0 32 32">
    <path d="M3 9h17a1 1 0 0 0 0-2H3a1 1 0 0 0 0 2zm0 6h17a1 1 0 0 0 0-2H3a1 1 0 0 0 0 2zm12 4H3a1 1 0 0 0 0 2h12a1 1 0 0 0 0-2zm14 0h-4v-4a1 1 0 0 0-2 0v4h-4a1 1 0 0 0 0 2h4v4a1 1 0 0 0 2 0v-4h4a1 1 0 0 0 0-2z" stroke="white" stroke-width="1.5" data-name="Layer 2" />
  </symbol>
</svg>