<?xml version="1.0" encoding="utf-8"?>
<!DOCTYPE svg PUBLIC "-//W3C//DTD SVG 1.0//EN" "http://www.w3.org/TR/2001/REC-SVG-20010904/DTD/svg10.dtd">
<svg version="1.0" xmlns="http://www.w3.org/2000/svg" xmlns:xlink="http://www.w3.org/1999/xlink" width="750px"
	 height="190px" xml:space="preserve">
<g>
	<path d="M190.309,114.353h-23.207l-5.119,10.979H141.11l36.345-66.51h22.297l13.384,66.51h-21.408L190.309,114.353z
		 M188.552,99.971l-3.174-23.91l-11.353,23.91H188.552z"/>
	<path d="M237.768,58.822h33.985c7.404,0,12.638,1.767,15.717,5.307c3.07,3.536,4.045,8.576,2.92,15.107
	c-1.161,6.715-4.077,11.963-8.744,15.744c-4.671,3.781-11.125,5.671-19.371,5.671h-11.191l-4.261,24.681h-20.533L237.768,58.822z
		 M253.413,87.177h5.008c3.942,0,6.823-0.69,8.658-2.063c1.832-1.376,2.933-3.138,3.302-5.288
		c0.361-2.086-0.024-3.857-1.155-5.307c-1.135-1.455-3.615-2.179-7.434-2.179h-5.824L253.413,87.177z"/>
	<path d="M309.063,58.822h54.788l-2.451,14.2h-34.301l-1.818,10.57h31.813l-2.341,13.561h-31.817l-2.262,13.117h35.295
		l-2.602,15.062h-55.785L309.063,58.822z"/>
	<path d="M371.307,125.332l11.48-66.51h34.075c6.317,0,11.054,0.541,14.204,1.63c3.154,1.093,5.495,3.109,7.031,6.053
		c1.538,2.952,1.939,6.547,1.214,10.776c-0.643,3.696-1.976,6.878-3.997,9.557c-2.028,2.675-4.56,4.845-7.584,6.505
		c-1.929,1.061-4.47,1.939-7.632,2.637c2.292,0.816,3.925,1.634,4.896,2.448c0.66,0.546,1.547,1.71,2.668,3.5
		c1.12,1.783,1.838,3.164,2.153,4.132l6.574,19.272h-23.101l-7.423-20.326c-0.929-2.63-1.865-4.336-2.816-5.125
		c-1.295-1.029-2.876-1.548-4.741-1.548h-1.808l-4.656,26.999H371.307z M398.676,85.769h8.614c0.937,0,2.79-0.301,5.575-0.907
		c1.4-0.271,2.625-0.967,3.672-2.087c1.058-1.121,1.706-2.402,1.959-3.856c0.368-2.147-0.025-3.795-1.184-4.946
		c-1.156-1.148-3.598-1.722-7.327-1.722h-8.979L398.676,85.769z"/>
	<path d="M456.11,58.822h62.147l-2.836,16.422h-20.851l-8.646,50.088h-20.44l8.642-50.088h-20.851L456.11,58.822z"/>
	<path d="M575.804,58.822h20.399l-6.843,39.623c-0.677,3.931-1.924,7.641-3.749,11.133c-1.82,3.489-4.255,6.546-7.311,9.156
		c-3.056,2.617-6.099,4.453-9.142,5.51c-4.223,1.481-9.122,2.225-14.689,2.225c-3.219,0-6.69-0.229-10.417-0.682
		c-3.728-0.455-6.757-1.354-9.078-2.703c-2.329-1.341-4.341-3.252-6.03-5.73c-1.692-2.479-2.704-5.033-3.033-7.666
		c-0.533-4.228-0.521-7.976,0.045-11.242l6.837-39.623h20.399L546.19,99.39c-0.626,3.626-0.114,6.462,1.536,8.501
		c1.648,2.041,4.246,3.059,7.796,3.059c3.523,0,6.454-1.004,8.803-3.017c2.348-2.009,3.841-4.856,4.478-8.543L575.804,58.822z"/>
	<path d="M604.409,125.332l11.477-66.51h34.073c6.32,0,11.053,0.541,14.204,1.63c3.153,1.093,5.497,3.109,7.032,6.053
		c1.536,2.952,1.944,6.547,1.211,10.776c-0.636,3.696-1.969,6.878-3.994,9.557c-2.027,2.675-4.557,4.845-7.579,6.505
		c-1.931,1.061-4.478,1.939-7.639,2.637c2.297,0.816,3.93,1.634,4.899,2.448c0.657,0.546,1.547,1.71,2.667,3.5
		c1.116,1.783,1.838,3.164,2.15,4.132l6.575,19.272h-23.101l-7.419-20.326c-0.931-2.63-1.869-4.336-2.816-5.125
		c-1.295-1.029-2.88-1.548-4.744-1.548h-1.805l-4.658,26.999H604.409z M631.771,85.769h8.616c0.933,0,2.794-0.301,5.573-0.907
		c1.403-0.271,2.629-0.967,3.68-2.087c1.049-1.121,1.704-2.402,1.951-3.856c0.374-2.147-0.02-3.795-1.177-4.946
		c-1.158-1.148-3.6-1.722-7.331-1.722h-8.98L631.771,85.769z"/>
	<path d="M694.213,58.822H749l-2.453,14.2h-34.299l-1.823,10.57h31.816l-2.343,13.561h-31.817l-2.26,13.117h35.291l-2.596,15.062
		h-55.785L694.213,58.822z"/>
</g>
<g>
	<path d="M204.078,165.141v-27.374h4.337v24.144h16.138v3.23H204.078z"/>
	<path d="M243.972,165.141l12.584-27.374h4.671l13.412,27.374h-4.94l-3.821-8.291h-13.703l-3.598,8.291H243.972z M253.427,153.899
		h11.109l-3.419-7.58c-1.043-2.304-1.818-4.196-2.325-5.679c-0.417,1.756-1.006,3.497-1.766,5.229L253.427,153.899z"/>
	<path d="M295.778,165.141v-27.374h12.295c2.501,0,4.51,0.275,6.023,0.829s2.696,1.408,3.554,2.561
		c0.855,1.149,1.285,2.354,1.285,3.612c0,1.171-0.38,2.27-1.14,3.305c-0.761,1.034-1.907,1.866-3.442,2.503
		c1.982,0.485,3.506,1.313,4.57,2.481c1.065,1.171,1.599,2.553,1.599,4.146c0,1.282-0.323,2.474-0.973,3.576
		c-0.646,1.102-1.448,1.952-2.402,2.55c-0.954,0.597-2.149,1.047-3.588,1.354c-1.438,0.304-3.2,0.457-5.285,0.457H295.778z
		 M300.115,149.268h7.085c1.923,0,3.301-0.104,4.136-0.318c1.103-0.271,1.933-0.728,2.491-1.361
		c0.56-0.636,0.839-1.432,0.839-2.391c0-0.91-0.262-1.709-0.782-2.4c-0.522-0.69-1.266-1.163-2.235-1.419
		c-0.969-0.255-2.63-0.383-4.984-0.383h-6.55V149.268z M300.115,161.91h8.16c1.399,0,2.383-0.043,2.949-0.131
		c0.998-0.149,1.833-0.399,2.505-0.747c0.669-0.349,1.22-0.857,1.653-1.522c0.431-0.665,0.648-1.435,0.648-2.306
		c0-1.021-0.314-1.908-0.939-2.661c-0.626-0.754-1.494-1.282-2.604-1.587c-1.109-0.307-2.707-0.457-4.795-0.457h-7.577V161.91z"/>
	<path d="M343.026,151.808c0-4.543,1.461-8.102,4.381-10.672c2.922-2.57,6.692-3.856,11.311-3.856
		c3.024,0,5.752,0.604,8.183,1.812c2.429,1.209,4.28,2.893,5.553,5.051c1.275,2.161,1.912,4.61,1.912,7.35
		c0,2.775-0.67,5.259-2.011,7.448c-1.343,2.192-3.241,3.851-5.701,4.978c-2.459,1.127-5.11,1.691-7.956,1.691
		c-3.087,0-5.844-0.622-8.272-1.869c-2.428-1.245-4.269-2.942-5.52-5.097C343.653,156.487,343.026,154.209,343.026,151.808z
		 M347.497,151.862c0,3.301,1.062,5.897,3.187,7.796c2.123,1.899,4.787,2.848,7.99,2.848c3.264,0,5.948-0.957,8.059-2.875
		c2.107-1.916,3.163-4.636,3.163-8.16c0-2.227-0.451-4.173-1.352-5.834c-0.903-1.661-2.222-2.951-3.959-3.866
		c-1.735-0.914-3.684-1.373-5.844-1.373c-3.071,0-5.712,0.881-7.925,2.643C348.603,144.804,347.497,147.744,347.497,151.862z"/>
	<path d="M397.873,165.141v-27.374h14.53c2.92,0,5.142,0.244,6.661,0.736c1.521,0.491,2.735,1.359,3.644,2.604
		s1.364,2.621,1.364,4.128c0,1.941-0.754,3.579-2.259,4.91c-1.505,1.333-3.83,2.18-6.974,2.54
		c1.147,0.461,2.021,0.914,2.617,1.362c1.266,0.972,2.464,2.185,3.598,3.643l5.699,7.45H421.3l-4.336-5.695
		c-1.267-1.646-2.31-2.901-3.129-3.773c-0.82-0.869-1.554-1.48-2.202-1.83c-0.649-0.348-1.309-0.59-1.979-0.728
		c-0.493-0.087-1.296-0.13-2.415-0.13h-5.029v12.156H397.873z M402.21,149.846h9.322c1.981,0,3.532-0.169,4.648-0.513
		c1.118-0.343,1.968-0.89,2.549-1.644c0.582-0.753,0.871-1.571,0.871-2.454c0-1.295-0.563-2.359-1.687-3.193
		c-1.126-0.833-2.902-1.252-5.331-1.252H402.21V149.846z"/>
	<path d="M445.123,165.141l12.583-27.374h4.672l13.411,27.374h-4.939l-3.821-8.291h-13.702l-3.599,8.291H445.123z
		 M454.577,153.899h11.11l-3.42-7.58c-1.044-2.304-1.818-4.196-2.325-5.679c-0.418,1.756-1.007,3.497-1.766,5.229L454.577,153.899
		z"/>
	<path d="M502.047,165.141v-24.146H491.25v-3.229h25.975v3.229h-10.843v24.146H502.047z"/>
	<path d="M537.381,151.808c0-4.543,1.461-8.102,4.381-10.672s6.69-3.856,11.311-3.856c3.024,0,5.751,0.604,8.182,1.812
		c2.429,1.209,4.28,2.893,5.554,5.051c1.275,2.161,1.911,4.61,1.911,7.35c0,2.775-0.669,5.259-2.012,7.448
		c-1.342,2.192-3.24,3.851-5.7,4.978c-2.459,1.127-5.11,1.691-7.956,1.691c-3.087,0-5.843-0.622-8.272-1.869
		c-2.429-1.245-4.268-2.942-5.52-5.097C538.007,156.487,537.381,154.209,537.381,151.808z M541.85,151.862
		c0,3.301,1.063,5.897,3.188,7.796c2.123,1.899,4.786,2.848,7.991,2.848c3.264,0,5.947-0.957,8.057-2.875
		c2.108-1.916,3.164-4.636,3.164-8.16c0-2.227-0.45-4.173-1.352-5.834c-0.903-1.661-2.223-2.951-3.958-3.866
		c-1.736-0.914-3.685-1.373-5.846-1.373c-3.07,0-5.711,0.881-7.924,2.643C542.957,144.804,541.85,147.744,541.85,151.862z"/>
	<path d="M592.228,165.141v-27.374h14.53c2.92,0,5.142,0.244,6.66,0.736c1.521,0.491,2.735,1.359,3.644,2.604
		s1.364,2.621,1.364,4.128c0,1.941-0.754,3.579-2.259,4.91c-1.505,1.333-3.83,2.18-6.974,2.54
		c1.146,0.461,2.021,0.914,2.616,1.362c1.267,0.972,2.466,2.185,3.599,3.643l5.699,7.45h-5.454l-4.337-5.695
		c-1.266-1.646-2.31-2.901-3.128-3.773c-0.82-0.869-1.554-1.48-2.202-1.83c-0.649-0.348-1.308-0.59-1.979-0.728
		c-0.492-0.087-1.295-0.13-2.414-0.13h-5.029v12.156H592.228z M596.564,149.846h9.321c1.982,0,3.531-0.169,4.649-0.513
		c1.117-0.343,1.968-0.89,2.548-1.644c0.582-0.753,0.872-1.571,0.872-2.454c0-1.295-0.563-2.359-1.688-3.193
		c-1.125-0.833-2.901-1.252-5.33-1.252h-10.372V149.846z"/>
	<path d="M643.813,165.141v-27.374h4.337v27.374H643.813z"/>
	<path d="M673.735,165.141v-27.374h23.695v3.229h-19.358v8.385h18.129v3.212h-18.129v9.318h20.117v3.23H673.735z"/>
	<path d="M720.561,156.346l4.089-0.299c0.194,1.368,0.646,2.492,1.354,3.369c0.708,0.878,1.807,1.588,3.297,2.129
		c1.489,0.541,3.165,0.813,5.029,0.813c1.654,0,3.115-0.207,4.381-0.616c1.266-0.411,2.209-0.974,2.829-1.69
		c0.617-0.717,0.927-1.497,0.927-2.344c0-0.858-0.297-1.608-0.894-2.25c-0.597-0.64-1.581-1.18-2.952-1.616
		c-0.878-0.284-2.823-0.729-5.833-1.334c-3.01-0.603-5.12-1.173-6.326-1.709c-1.564-0.684-2.73-1.534-3.498-2.549
		c-0.769-1.014-1.15-2.149-1.15-3.408c0-1.382,0.468-2.672,1.408-3.875c0.938-1.2,2.31-2.112,4.111-2.735
		c1.803-0.622,3.808-0.933,6.014-0.933c2.429,0,4.572,0.327,6.428,0.98c1.854,0.652,3.28,1.615,4.28,2.886
		c0.997,1.269,1.533,2.706,1.607,4.313l-4.156,0.26c-0.225-1.729-0.98-3.037-2.269-3.921c-1.289-0.884-3.193-1.326-5.712-1.326
		c-2.623,0-4.534,0.402-5.734,1.206c-1.199,0.802-1.799,1.77-1.799,2.901c0,0.985,0.424,1.794,1.274,2.428
		c0.836,0.635,3.014,1.287,6.537,1.951c3.525,0.667,5.943,1.248,7.255,1.748c1.906,0.732,3.314,1.665,4.225,2.791
		c0.908,1.127,1.362,2.425,1.362,3.892c0,1.458-0.498,2.831-1.497,4.119c-0.998,1.289-2.433,2.292-4.302,3.006
		c-1.871,0.716-3.976,1.075-6.314,1.075c-2.968,0-5.452-0.363-7.456-1.086c-2.005-0.719-3.576-1.806-4.716-3.257
		C721.22,159.816,720.619,158.176,720.561,156.346z"/>
</g>
<g>
	<g>
		<path d="M152.361,90.517l-17.29-80.414c18.472,8.815,33.49,23.472,42.851,41.426L152.361,90.517z"/>
	</g>
	<g>
		<path d="M99.238,152.735l80.223-17.334c-8.794,18.519-23.417,33.572-41.328,42.957L99.238,152.735z"/>
	</g>
	<g>
		<path d="M57.206,138.994l68.954,44.606c-19.286,6.861-40.24,7.14-59.524,1.08L57.206,138.994z"/>
	</g>
	<g>
		<path d="M37.178,99.484l17.289,80.417c-18.472-8.817-33.488-23.474-42.851-41.427L37.178,99.484z"/>
	</g>
	<g>
		<path d="M50.884,57.349l-44.499,69.12c-6.844-19.334-7.122-40.336-1.078-59.671L50.884,57.349z"/>
	</g>
	<g>
		<path d="M90.296,37.271L10.077,54.602c8.798-18.521,23.414-33.575,41.329-42.959L90.296,37.271z"/>
	</g>
	<g>
		<path d="M132.328,51.005L63.38,6.4c19.284-6.862,40.238-7.143,59.522-1.085L132.328,51.005z"/>
	</g>
</g>
</svg>
