<?xml version="1.0" encoding="UTF-8" standalone="no"?>
<!-- Created with Inkscape (http://www.inkscape.org/) -->
<svg xmlns:ns="http://creativecommons.org/ns#" xmlns:dc="http://purl.org/dc/elements/1.1/" xmlns:cc="http://web.resource.org/cc/" xmlns:rdf="http://www.w3.org/1999/02/22-rdf-syntax-ns#" xmlns:svg="http://www.w3.org/2000/svg" xmlns="http://www.w3.org/2000/svg" xmlns:xlink="http://www.w3.org/1999/xlink" xmlns:sodipodi="http://sodipodi.sourceforge.net/DTD/sodipodi-0.dtd" xmlns:inkscape="http://www.inkscape.org/namespaces/inkscape" version="1.0" width="387" height="351" id="svg2" sodipodi:version="0.32" inkscape:version="0.45pre1" sodipodi:docname="Portal_physics-3.svg" inkscape:output_extension="org.inkscape.output.svg.inkscape" sodipodi:docbase="H:\Documents and Settings\Administrator\Desktop" sodipodi:modified="true">
  <metadata id="metadata41">
    <rdf:RDF>
      <ns:Work rdf:about="">
        <dc:format>image/svg+xml</dc:format>
        <dc:type rdf:resource="http://purl.org/dc/dcmitype/StillImage"/>
      </ns:Work>
      <cc:Work rdf:about="">
        <dc:format>image/svg+xml</dc:format>
        <dc:type rdf:resource="http://purl.org/dc/dcmitype/StillImage"/>
      </cc:Work>
    </rdf:RDF>
  </metadata>
  <sodipodi:namedview inkscape:window-height="840" inkscape:window-width="1440" inkscape:pageshadow="2" inkscape:pageopacity="0.0" guidetolerance="10.0" gridtolerance="10.0" objecttolerance="10.0" borderopacity="1.0" bordercolor="#666666" pagecolor="#ffffff" id="base" showgrid="false" inkscape:zoom="1.4142136" inkscape:cx="136.22161" inkscape:cy="105.14925" inkscape:window-x="-4" inkscape:window-y="-4" inkscape:current-layer="svg2" width="387px" height="351px" units="px"/>
  <defs id="defs5">
    <linearGradient id="linearGradient5156">
      <stop style="stop-color: rgb(0, 0, 0); stop-opacity: 1;" offset="0" id="stop5158"/>
      <stop style="stop-color: rgb(255, 255, 255); stop-opacity: 1;" offset="1" id="stop5160"/>
    </linearGradient>
    <linearGradient x1="199.84335" y1="459.72089" x2="215.64703" y2="459.72089" id="linearGradient5162" xlink:href="#linearGradient5156" gradientUnits="userSpaceOnUse"/>
    <linearGradient x1="199.84335" y1="459.72089" x2="215.64703" y2="459.72089" id="linearGradient5166" xlink:href="#linearGradient5156" gradientUnits="userSpaceOnUse" gradientTransform="matrix(2.91582, 0, 0, 0.296433, -531.444, 269.923)"/>
    <linearGradient inkscape:collect="always" xlink:href="#linearGradient5156" id="linearGradient3694" gradientUnits="userSpaceOnUse" gradientTransform="matrix(0, 0.923729, -1.00158, 0, 597.461, 137.823)" x1="207.74521" y1="482.93268" x2="207.74521" y2="436.50912"/>
    <linearGradient inkscape:collect="always" xlink:href="#linearGradient5156" id="linearGradient3696" gradientUnits="userSpaceOnUse" gradientTransform="matrix(0.999614, 0, 0, 1.01328, -144.944, -412.411)" x1="199.84335" y1="459.72089" x2="215.64703" y2="459.72089"/>
    <linearGradient inkscape:collect="always" xlink:href="#linearGradient5156" id="linearGradient3698" gradientUnits="userSpaceOnUse" gradientTransform="matrix(0, 1.02347, -0.846024, 0, 619.912, -34.1548)" x1="207.74521" y1="482.93268" x2="207.74521" y2="436.50912"/>
    <linearGradient inkscape:collect="always" xlink:href="#linearGradient5156" id="linearGradient3740" gradientUnits="userSpaceOnUse" gradientTransform="matrix(0, 1.02347, -0.830593, 0, 608.704, -34.1548)" x1="207.74521" y1="482.93268" x2="207.74521" y2="436.50912"/>
    <linearGradient inkscape:collect="always" xlink:href="#linearGradient5156" id="linearGradient3743" gradientUnits="userSpaceOnUse" gradientTransform="matrix(0.981382, 0, 0, 1.01328, -142.201, -412.411)" x1="199.84335" y1="459.72089" x2="215.64703" y2="459.72089"/>
    <linearGradient inkscape:collect="always" xlink:href="#linearGradient5156" id="linearGradient3746" gradientUnits="userSpaceOnUse" gradientTransform="matrix(0, 0.923729, -0.983311, 0, 586.663, 135.823)" x1="207.74521" y1="482.93268" x2="207.74521" y2="436.50912"/>
    <linearGradient inkscape:collect="always" xlink:href="#linearGradient5156" id="linearGradient3798" gradientUnits="userSpaceOnUse" gradientTransform="matrix(0, 0.923729, -0.983311, 0, 586.663, 135.823)" x1="207.74521" y1="482.93268" x2="207.74521" y2="436.50912"/>
    <linearGradient inkscape:collect="always" xlink:href="#linearGradient5156" id="linearGradient3800" gradientUnits="userSpaceOnUse" gradientTransform="matrix(0.981382, 0, 0, 1.01328, -142.201, -412.411)" x1="199.84335" y1="459.72089" x2="215.64703" y2="459.72089"/>
    <linearGradient inkscape:collect="always" xlink:href="#linearGradient5156" id="linearGradient3802" gradientUnits="userSpaceOnUse" gradientTransform="matrix(0, 1.02347, -0.830593, 0, 608.704, -34.1548)" x1="207.74521" y1="482.93268" x2="207.74521" y2="436.50912"/>
    <linearGradient inkscape:collect="always" xlink:href="#linearGradient5156" id="linearGradient3826" gradientUnits="userSpaceOnUse" gradientTransform="matrix(0, 1.02347, -0.830593, 0, 608.704, -34.1548)" x1="207.74521" y1="482.93268" x2="207.74521" y2="436.50912"/>
    <linearGradient inkscape:collect="always" xlink:href="#linearGradient5156" id="linearGradient3829" gradientUnits="userSpaceOnUse" gradientTransform="matrix(0.981382, 0, 0, 1.01328, -142.201, -412.411)" x1="199.84335" y1="459.72089" x2="215.64703" y2="459.72089"/>
    <linearGradient inkscape:collect="always" xlink:href="#linearGradient5156" id="linearGradient3832" gradientUnits="userSpaceOnUse" gradientTransform="matrix(0, 0.923729, -0.983311, 0, 586.663, 135.823)" x1="207.74521" y1="482.93268" x2="207.74521" y2="436.50912"/>
    <linearGradient inkscape:collect="always" xlink:href="#linearGradient5156" id="linearGradient3900" gradientUnits="userSpaceOnUse" gradientTransform="matrix(0, 0.923729, -0.983311, 0, 586.663, 135.823)" x1="207.74521" y1="482.93268" x2="207.74521" y2="436.50912"/>
    <linearGradient inkscape:collect="always" xlink:href="#linearGradient5156" id="linearGradient3902" gradientUnits="userSpaceOnUse" gradientTransform="matrix(0.981382, 0, 0, 1.01328, -142.201, -412.411)" x1="199.84335" y1="459.72089" x2="215.64703" y2="459.72089"/>
    <linearGradient inkscape:collect="always" xlink:href="#linearGradient5156" id="linearGradient3904" gradientUnits="userSpaceOnUse" gradientTransform="matrix(0, 1.02347, -0.830593, 0, 608.704, -34.1548)" x1="207.74521" y1="482.93268" x2="207.74521" y2="436.50912"/>
    <linearGradient inkscape:collect="always" xlink:href="#linearGradient5156" id="linearGradient3920" gradientUnits="userSpaceOnUse" gradientTransform="matrix(0, 1.02347, -0.830593, 0, 608.704, -34.1548)" x1="207.74521" y1="482.93268" x2="207.74521" y2="436.50912"/>
    <linearGradient inkscape:collect="always" xlink:href="#linearGradient5156" id="linearGradient3923" gradientUnits="userSpaceOnUse" gradientTransform="matrix(0.981382, 0, 0, 1.01328, -142.201, -412.411)" x1="199.84335" y1="459.72089" x2="215.64703" y2="459.72089"/>
    <linearGradient inkscape:collect="always" xlink:href="#linearGradient5156" id="linearGradient3926" gradientUnits="userSpaceOnUse" gradientTransform="matrix(0, 0.923729, -0.983311, 0, 586.663, 135.823)" x1="207.74521" y1="482.93268" x2="207.74521" y2="436.50912"/>
    <linearGradient inkscape:collect="always" xlink:href="#linearGradient5156" id="linearGradient3976" gradientUnits="userSpaceOnUse" gradientTransform="matrix(0, 0.923729, -0.983311, 0, 586.663, 135.823)" x1="207.74521" y1="482.93268" x2="207.74521" y2="436.50912"/>
    <linearGradient inkscape:collect="always" xlink:href="#linearGradient5156" id="linearGradient3978" gradientUnits="userSpaceOnUse" gradientTransform="matrix(0.981382, 0, 0, 1.01328, -142.201, -412.411)" x1="199.84335" y1="459.72089" x2="215.64703" y2="459.72089"/>
    <linearGradient inkscape:collect="always" xlink:href="#linearGradient5156" id="linearGradient3980" gradientUnits="userSpaceOnUse" gradientTransform="matrix(0, 1.02347, -0.830593, 0, 608.704, -34.1548)" x1="207.74521" y1="482.93268" x2="207.74521" y2="436.50912"/>
    <linearGradient inkscape:collect="always" xlink:href="#linearGradient5156" id="linearGradient3996" gradientUnits="userSpaceOnUse" gradientTransform="matrix(0, 1.02347, -0.830593, 0, 608.704, -34.1548)" x1="207.74521" y1="482.93268" x2="207.74521" y2="436.50912"/>
    <linearGradient inkscape:collect="always" xlink:href="#linearGradient5156" id="linearGradient3999" gradientUnits="userSpaceOnUse" gradientTransform="matrix(0.981382, 0, 0, 1.01328, -142.201, -412.411)" x1="199.84335" y1="459.72089" x2="215.64703" y2="459.72089"/>
    <linearGradient inkscape:collect="always" xlink:href="#linearGradient5156" id="linearGradient4002" gradientUnits="userSpaceOnUse" gradientTransform="matrix(0, 0.923729, -0.983311, 0, 586.663, 135.823)" x1="207.74521" y1="482.93268" x2="207.74521" y2="436.50912"/>
    <linearGradient inkscape:collect="always" xlink:href="#linearGradient5156" id="linearGradient4103" gradientUnits="userSpaceOnUse" gradientTransform="matrix(0, 0.923729, -0.983311, 0, 586.663, 135.823)" x1="207.74521" y1="482.93268" x2="207.74521" y2="436.50912"/>
    <linearGradient inkscape:collect="always" xlink:href="#linearGradient5156" id="linearGradient4105" gradientUnits="userSpaceOnUse" gradientTransform="matrix(0.981382, 0, 0, 1.01328, -142.201, -412.411)" x1="199.84335" y1="459.72089" x2="215.64703" y2="459.72089"/>
    <linearGradient inkscape:collect="always" xlink:href="#linearGradient5156" id="linearGradient4107" gradientUnits="userSpaceOnUse" gradientTransform="matrix(0, 1.02347, -0.830593, 0, 608.704, -34.1548)" x1="207.74521" y1="482.93268" x2="207.74521" y2="436.50912"/>
    <linearGradient inkscape:collect="always" xlink:href="#linearGradient5156" id="linearGradient4123" gradientUnits="userSpaceOnUse" gradientTransform="matrix(0, 1.02347, -0.830593, 0, 608.704, -34.1548)" x1="207.74521" y1="482.93268" x2="207.74521" y2="436.50912"/>
    <linearGradient inkscape:collect="always" xlink:href="#linearGradient5156" id="linearGradient4126" gradientUnits="userSpaceOnUse" gradientTransform="matrix(0.981382, 0, 0, 1.01328, -142.201, -412.411)" x1="199.84335" y1="459.72089" x2="215.64703" y2="459.72089"/>
    <linearGradient inkscape:collect="always" xlink:href="#linearGradient5156" id="linearGradient4129" gradientUnits="userSpaceOnUse" gradientTransform="matrix(0, 0.923729, -0.983311, 0, 586.663, 135.823)" x1="207.74521" y1="482.93268" x2="207.74521" y2="436.50912"/>
    <linearGradient inkscape:collect="always" xlink:href="#linearGradient5156" id="linearGradient4171" gradientUnits="userSpaceOnUse" gradientTransform="matrix(0, 0.923729, -0.983311, 0, 586.663, 135.823)" x1="207.74521" y1="482.93268" x2="207.74521" y2="436.50912"/>
    <linearGradient inkscape:collect="always" xlink:href="#linearGradient5156" id="linearGradient4173" gradientUnits="userSpaceOnUse" gradientTransform="matrix(0.981382, 0, 0, 1.01328, -142.201, -412.411)" x1="199.84335" y1="459.72089" x2="215.64703" y2="459.72089"/>
    <linearGradient inkscape:collect="always" xlink:href="#linearGradient5156" id="linearGradient4175" gradientUnits="userSpaceOnUse" gradientTransform="matrix(0, 1.02347, -0.830593, 0, 608.704, -34.1548)" x1="207.74521" y1="482.93268" x2="207.74521" y2="436.50912"/>
    <linearGradient inkscape:collect="always" xlink:href="#linearGradient5156" id="linearGradient4191" gradientUnits="userSpaceOnUse" gradientTransform="matrix(0, 1.02347, -0.830593, 0, 608.704, -34.1548)" x1="207.74521" y1="482.93268" x2="207.74521" y2="436.50912"/>
    <linearGradient inkscape:collect="always" xlink:href="#linearGradient5156" id="linearGradient4194" gradientUnits="userSpaceOnUse" gradientTransform="matrix(0.981382, 0, 0, 1.01328, -142.201, -412.411)" x1="199.84335" y1="459.72089" x2="215.64703" y2="459.72089"/>
    <linearGradient inkscape:collect="always" xlink:href="#linearGradient5156" id="linearGradient4197" gradientUnits="userSpaceOnUse" gradientTransform="matrix(0, 0.923729, -0.983311, 0, 586.663, 135.823)" x1="207.74521" y1="482.93268" x2="207.74521" y2="436.50912"/>
  </defs>
  <g id="g4210">
    <path id="path3224" d="M 292.27568,345.52038 L 364.77357,305.01021 L 126.74303,305.01021 L 54.245146,345.52039 L 292.27568,345.52038 z " style="fill: rgb(236, 236, 236); fill-opacity: 1; fill-rule: nonzero; stroke: rgb(0, 0, 0); stroke-width: 0.984154; stroke-linecap: round; stroke-linejoin: round; stroke-miterlimit: 4; stroke-dashoffset: 0pt; stroke-opacity: 1;" sodipodi:nodetypes="ccccc"/>
    <path id="rect3215" d="M 5.9453388,46.137541 L 78.44322,5.5833121 L 78.44322,205.10138 L 5.9453388,245.6556 L 5.9453388,46.137541 z " style="fill: rgb(230, 230, 230); fill-opacity: 1; fill-rule: nonzero; stroke: rgb(0, 0, 0); stroke-width: 0.984154; stroke-linecap: round; stroke-linejoin: round; stroke-miterlimit: 4; stroke-dashoffset: 0pt; stroke-opacity: 1;"/>
    <path sodipodi:nodetypes="ccccc" style="fill: rgb(230, 230, 230); fill-opacity: 1; fill-rule: nonzero; stroke: rgb(0, 0, 0); stroke-width: 0.984154; stroke-linecap: round; stroke-linejoin: round; stroke-miterlimit: 4; stroke-dashoffset: 0pt; stroke-opacity: 1;" d="M 331.1736,155.51895 L 259.0737,195.51482 L 259.0737,345.46242 L 331.1736,305.46656 L 331.1736,155.51895 z " id="path3213"/>
    <path sodipodi:nodetypes="ccccc" style="fill: rgb(236, 236, 236); fill-opacity: 1; fill-rule: nonzero; stroke: rgb(0, 0, 0); stroke-width: 0.984154; stroke-linecap: round; stroke-linejoin: round; stroke-miterlimit: 4; stroke-dashoffset: 0pt; stroke-opacity: 1;" d="M 54.269481,245.6556 L 126.76736,205.14544 L 78.443219,205.14544 L 5.9453387,245.6556 L 54.269481,245.6556 z " id="path3218"/>
    <path sodipodi:nodetypes="ccccc" style="fill: rgb(230, 230, 230); fill-opacity: 1; fill-rule: nonzero; stroke: rgb(0, 0, 0); stroke-width: 0.984154; stroke-linecap: round; stroke-linejoin: round; stroke-miterlimit: 4; stroke-dashoffset: 0pt; stroke-opacity: 1;" d="M 53.243885,246.70657 L 125.74176,206.15234 L 125.74176,305.96632 L 53.243885,346.52055 L 53.243885,246.70657 z " id="path3222"/>
    <path id="path3240" d="M 54.269481,245.6556 L 54.247995,345.5858 L 5.9238505,345.5858 L 5.9453387,245.6556 L 54.269481,245.6556 z " style="fill: rgb(249, 249, 249); fill-opacity: 1; fill-rule: nonzero; stroke: rgb(0, 0, 0); stroke-width: 0.984154; stroke-linecap: round; stroke-linejoin: round; stroke-miterlimit: 4; stroke-dashoffset: 0pt; stroke-opacity: 1;" sodipodi:nodetypes="ccccc"/>
    <path id="rect3206" d="M 161.43708,195.51481 L 258.36659,195.51481 L 258.36659,345.46242 L 161.43708,345.46242 L 161.43708,195.51481 z " style="fill: rgb(249, 249, 249); fill-opacity: 1; fill-rule: nonzero; stroke: rgb(0, 0, 0); stroke-width: 0.984154; stroke-linecap: round; stroke-linejoin: round; stroke-miterlimit: 4; stroke-dashoffset: 0pt; stroke-opacity: 1;"/>
    <path sodipodi:nodetypes="ccccc" style="fill: rgb(236, 236, 236); fill-opacity: 1; fill-rule: nonzero; stroke: rgb(0, 0, 0); stroke-width: 0.984154; stroke-linecap: round; stroke-linejoin: round; stroke-miterlimit: 4; stroke-dashoffset: 0pt; stroke-opacity: 1;" d="M 162.14419,195.51481 L 259.0737,195.51481 L 331.17001,155.51859 L 234.2405,155.51859 L 162.14419,195.51481 z " id="path3209"/>
    <path id="path3235" d="M 257.94041,161.59977 L 380.90728,161.59977 L 380.90728,345.65613 L 257.94041,345.65613 L 257.94041,161.59977 z " style="fill: rgb(249, 249, 249); fill-opacity: 1; fill-rule: nonzero; stroke: rgb(0, 0, 0); stroke-width: 1.2281; stroke-linecap: round; stroke-linejoin: round; stroke-miterlimit: 4; stroke-dashoffset: 0pt; stroke-opacity: 1;"/>
    <path sodipodi:nodetypes="ccccc" style="fill: rgb(236, 236, 236); fill-opacity: 1; fill-rule: nonzero; stroke: rgb(0, 0, 0); stroke-width: 1.11489; stroke-linecap: round; stroke-linejoin: round; stroke-miterlimit: 4; stroke-dashoffset: 0pt; stroke-opacity: 1;" d="M 257.75518,161.33667 L 380.34116,162.33478 L 380.85469,123.47093 L 350.58945,123.47093 L 257.75518,161.33667 z " id="path3237"/>
    <path d="M 79.60136,224.31927 C 78.8353,224.05974 78.228591,223.47598 78.055297,222.83167 C 77.986243,222.57493 77.953337,217.32258 77.952971,206.49842 L 77.952431,190.54362 L 77.564299,190.54362 L 77.176167,190.54362 L 77.176167,196.56625 C 77.176167,202.47035 77.172218,202.59605 76.975535,202.95317 C 76.720774,203.41576 76.434679,203.6325 75.874763,203.78712 C 75.046971,204.01572 74.14168,203.57921 73.816582,202.79471 C 73.607413,202.28996 73.621035,188.82753 73.831561,187.993 C 74.306102,186.11189 75.842855,184.57079 77.635152,184.17864 C 78.579282,183.97208 87.3084,183.96953 88.249751,184.17554 C 89.208605,184.38539 90.032171,184.86007 90.760897,185.62287 C 91.510462,186.40747 91.860359,187.04396 92.121347,188.09758 C 92.30326,188.83198 92.313293,189.22527 92.313293,195.62231 C 92.313293,201.46989 92.293342,202.42144 92.164041,202.74095 C 91.962997,203.23776 91.756112,203.46119 91.294447,203.68008 C 90.528335,204.04332 89.554621,203.80963 89.101609,203.15382 L 88.868626,202.81654 L 88.842198,196.68008 L 88.81577,190.54362 L 88.429809,190.54362 L 88.043846,190.54362 L 88.043846,206.57678 C 88.043846,224.15211 88.082357,222.98513 87.480759,223.6396 C 87.005543,224.15657 86.52094,224.35214 85.715058,224.35214 C 84.909178,224.35214 84.424572,224.15657 83.949355,223.6396 C 83.359468,222.99787 83.386269,223.49527 83.386269,213.18913 L 83.386269,203.76831 L 82.998139,203.76831 L 82.610007,203.76831 L 82.610007,213.18913 C 82.610007,220.86647 82.585793,222.66961 82.479162,222.93233 C 82.283679,223.41398 81.858417,223.88887 81.412002,224.12401 C 80.981745,224.35065 80.004926,224.45599 79.60136,224.31927 z M 81.78396,183.05544 C 80.610955,182.62287 79.885974,181.95607 79.372817,180.83782 C 79.08879,180.21887 79.068308,180.09997 79.068308,179.07007 C 79.068308,178.02796 79.085941,177.92893 79.382076,177.30783 C 80.8612,174.20563 85.131448,174.19803 86.608064,177.29496 C 86.913803,177.9362 86.927968,178.01702 86.927968,179.12016 C 86.927968,180.18108 86.906036,180.32053 86.656734,180.84471 C 86.237944,181.72525 85.619387,182.36729 84.774501,182.79844 C 84.118523,183.13317 83.951951,183.17485 83.156808,183.20321 C 82.489588,183.22701 82.150106,183.19047 81.78396,183.05544 z " style="fill: rgb(0, 0, 0);" id="path2558"/>
    <path d="M 134.61419,334.56019 C 122.54766,334.56347 112.76024,331.50135 112.76024,327.72289 C 112.76024,323.94443 122.54766,320.8823 134.61419,320.88559 C 146.68073,320.8823 156.46815,323.94443 156.46815,327.72289 C 156.46815,331.50135 146.68073,334.56347 134.61419,334.56019 z " style="fill: url(#linearGradient4197) rgb(0, 0, 0); fill-opacity: 1; stroke: rgb(0, 200, 255); stroke-width: 1.88117; stroke-linecap: round; stroke-miterlimit: 4; stroke-dasharray: none; stroke-opacity: 1;" id="path3254"/>
    <path id="path4185" style="fill: url(#linearGradient4194) rgb(0, 0, 0); fill-opacity: 1; stroke: rgb(255, 200, 0); stroke-width: 1.96831; stroke-linecap: round; stroke-miterlimit: 4; stroke-dasharray: none; stroke-opacity: 1;" d="M 68.940601,53.41527 C 68.944094,65.84956 65.690852,75.935288 61.676567,75.935288 C 57.662274,75.935288 54.409032,65.84956 54.412525,53.41527 C 54.409032,40.980979 57.662274,30.895251 61.676567,30.895251 C 65.690852,30.895251 68.944094,40.980979 68.940601,53.41527 z "/>
    <path d="M 226.8633,186.04156 C 216.6708,186.0452 208.40347,182.65245 208.40347,178.466 C 208.40347,174.27955 216.6708,170.8868 226.8633,170.89045 C 237.05576,170.8868 245.32311,174.27955 245.32311,178.466 C 245.32311,182.65245 237.05576,186.0452 226.8633,186.04156 z " style="fill: url(#linearGradient4191) rgb(0, 0, 0); fill-opacity: 1; stroke: rgb(0, 200, 255); stroke-width: 1.81987; stroke-linecap: round; stroke-miterlimit: 4; stroke-dasharray: none; stroke-opacity: 1;" id="path3239"/>
    <g style="fill: rgb(255, 0, 0);" id="g2191" transform="matrix(0.841914, -0.0382237, -0.070202, 1.27507, -62.4213, -600.881)">
      <path id="path6143" style="fill: rgb(255, 0, 0); fill-opacity: 1; fill-rule: evenodd; stroke: none; stroke-width: 1; stroke-linecap: butt; stroke-linejoin: miter; stroke-miterlimit: 4; stroke-dasharray: 8, 8; stroke-dashoffset: 0pt; stroke-opacity: 1;" d="M 264.96875,590.65625 L 265.3125,590.71875 L 265.34375,590.71875 L 266.21875,590.96875 L 266.25,590.96875 L 267.09375,591.28125 L 267.15625,591.3125 L 267.96875,591.65625 L 267.96875,591.6875 L 268.84375,592.15625 L 268.875,592.1875 L 269.6875,592.6875 L 269.71875,592.71875 L 270.53125,593.34375 L 270.53125,593.3125 L 271.34375,594.03125 L 271.65625,594.3125 L 272.34375,593.59375 L 272.03125,593.28125 L 272,593.28125 L 272,593.25 L 271.15625,592.5625 L 271.15625,592.53125 L 271.125,592.53125 L 270.28125,591.90625 L 270.28125,591.875 L 270.25,591.875 L 269.375,591.3125 L 269.34375,591.3125 L 268.46875,590.8125 L 268.4375,590.8125 L 268.4375,590.78125 L 267.53125,590.375 L 267.5,590.375 L 267.5,590.34375 L 266.5625,590.03125 L 266.53125,590 L 265.5625,589.75 L 265.53125,589.75 L 265.15625,589.65625 L 264.96875,590.65625 z M 257,590.75 L 256.96875,590.75 L 255.84375,591.28125 L 255.8125,591.28125 L 254.6875,591.90625 L 254.65625,591.90625 L 254.65625,591.9375 L 253.5,592.65625 L 253.46875,592.65625 L 252.28125,593.46875 L 252.28125,593.5 L 252.25,593.5 L 251.0625,594.40625 L 251.03125,594.4375 L 250.25,595.09375 L 250.875,595.875 L 251.65625,595.21875 L 251.6875,595.1875 L 252.84375,594.3125 L 252.875,594.28125 L 254.03125,593.46875 L 254.03125,593.5 L 255.15625,592.78125 L 255.1875,592.78125 L 256.28125,592.1875 L 256.3125,592.15625 L 257.375,591.65625 L 257.40625,591.65625 L 257.4375,591.625 L 257.0625,590.71875 L 257,590.71875 L 257,590.75 z M 276.5,600.5 L 276.625,600.6875 L 276.59375,600.6875 L 277.96875,603.125 L 278,603.15625 L 279.28125,605.8125 L 280.0625,607.5625 L 280.96875,607.15625 L 280.1875,605.40625 L 280.1875,605.375 L 278.875,602.6875 L 278.875,602.65625 L 277.46875,600.1875 L 277.46875,600.15625 L 277.34375,599.96875 L 276.5,600.5 z M 243.28125,602.21875 L 241.90625,603.90625 L 240.53125,605.71875 L 239.5,607.09375 L 240.3125,607.6875 L 241.34375,606.3125 L 241.3125,606.3125 L 242.71875,604.53125 L 242.6875,604.53125 L 244.0625,602.875 L 245.28125,601.4375 L 244.5,600.78125 L 243.28125,602.21875 z M 233.25,616.46875 L 230.8125,620.5625 L 231.65625,621.0625 L 234.09375,617 L 235.84375,614.25 L 235,613.71875 L 233.25,616.46875 z M 282.875,615 L 283.9375,618.375 L 284.96875,621.9375 L 285.15625,622.625 L 286.125,622.375 L 285.9375,621.65625 L 285.90625,621.65625 L 284.90625,618.09375 L 283.8125,614.6875 L 282.875,615 z M 287.0625,630.375 L 287.6875,633.3125 L 288.5,637.3125 L 288.5,637.34375 L 288.6875,638.1875 L 289.65625,638.03125 L 289.5,637.125 L 288.6875,633.125 L 288.03125,630.15625 L 287.0625,630.375 z M 290.0625,646.0625 L 290.65625,649.75 L 291.25,653.96875 L 292.25,653.8125 L 291.65625,649.625 L 291.65625,649.59375 L 291.0625,645.90625 L 290.0625,646.0625 z M 292.3125,661.875 L 292.90625,666.8125 L 293.25,669.8125 L 294.21875,669.71875 L 293.90625,666.71875 L 293.90625,666.6875 L 293.3125,661.75 L 292.3125,661.875 z M 294.03125,677.78125 L 294.5625,683.625 L 294.71875,685.75 L 295.71875,685.65625 L 295.5625,683.5625 L 295.5625,683.53125 L 295.03125,677.6875 L 294.03125,677.78125 z M 295.3125,693.71875 L 295.6875,699.3125 L 295.6875,699.34375 L 295.84375,701.6875 L 296.84375,701.625 L 296.6875,699.28125 L 296.6875,699.25 L 296.3125,693.65625 L 295.3125,693.71875 z M 296.25,709.6875 L 296.40625,713.03125 L 296.59375,717.65625 L 297.59375,717.625 L 297.40625,713 L 297.25,709.625 L 296.25,709.6875 z M 296.84375,725.65625 L 296.96875,731.0625 L 297,733.65625 L 298,733.625 L 297.96875,731.0625 L 297.96875,731.03125 L 297.84375,725.625 L 296.84375,725.65625 z "/>
      <path id="path2197" style="fill: rgb(255, 0, 0); fill-rule: evenodd; stroke: rgb(0, 0, 0); stroke-width: 0.8pt; marker-start: none;" d="M 297.43825,723.63786 L 293.41285,719.66342 L 297.50194,733.63766 L 301.41269,719.61247 L 297.43825,723.63786 z "/>
    </g>
    <g style="fill: rgb(255, 0, 0);" id="g2199" transform="matrix(0.774749, 0, 0, 0.988683, -105.369, -401.133)">
      <path id="path6145" style="fill: rgb(255, 0, 0); fill-opacity: 1; fill-rule: evenodd; stroke: none; stroke-width: 1; stroke-linecap: butt; stroke-linejoin: miter; stroke-miterlimit: 4; stroke-dasharray: 8, 8; stroke-dashoffset: 0pt; stroke-opacity: 1;" d="M 209.65625,458.28125 L 216.875,458.375 L 216.90625,458.375 L 217.0625,458.40625 L 217.09375,457.40625 L 216.9375,457.375 L 216.90625,457.375 L 209.6875,457.28125 L 209.65625,458.28125 z M 225.03125,458.71875 L 230.9375,459.09375 L 233,459.28125 L 233.09375,458.28125 L 231.03125,458.09375 L 231,458.09375 L 225.09375,457.71875 L 225.03125,458.71875 z M 240.96875,460.03125 L 244.4375,460.4375 L 244.46875,460.4375 L 248.875,461.0625 L 249,460.0625 L 244.59375,459.4375 L 244.5625,459.4375 L 241.0625,459.0625 L 240.96875,460.03125 z M 256.78125,462.3125 L 257.4375,462.40625 L 263.71875,463.59375 L 263.75,463.59375 L 264.59375,463.78125 L 264.8125,462.8125 L 263.9375,462.625 L 257.625,461.4375 L 257.59375,461.4375 L 256.9375,461.3125 L 256.78125,462.3125 z M 272.40625,465.5625 L 275.90625,466.40625 L 275.9375,466.40625 L 280.125,467.53125 L 280.375,466.5625 L 276.1875,465.4375 L 276.15625,465.4375 L 272.625,464.5625 L 272.40625,465.5625 z M 287.78125,469.75 L 293.25,471.53125 L 295.375,472.28125 L 295.6875,471.3125 L 293.5625,470.59375 L 293.5625,470.5625 L 288.09375,468.8125 L 287.78125,469.75 z M 302.875,475 L 304.15625,475.5 L 304.15625,475.46875 L 309.40625,477.625 L 309.40625,477.59375 L 310.28125,477.96875 L 310.65625,477.0625 L 309.8125,476.6875 L 309.78125,476.6875 L 304.53125,474.5625 L 304.5,474.5625 L 303.21875,474.0625 L 302.875,475 z M 317.59375,481.21875 L 319.5625,482.125 L 324.46875,484.5 L 324.78125,484.65625 L 325.21875,483.78125 L 324.90625,483.625 L 320,481.21875 L 318,480.3125 L 317.59375,481.21875 z M 331.84375,488.375 L 333.875,489.5 L 333.875,489.46875 L 338.40625,492.0625 L 338.78125,492.3125 L 339.3125,491.4375 L 338.90625,491.21875 L 334.375,488.625 L 334.34375,488.625 L 332.3125,487.5 L 331.84375,488.375 z M 345.59375,496.46875 L 347.09375,497.40625 L 351.25,500.15625 L 351.25,500.125 L 352.28125,500.84375 L 352.84375,500.03125 L 351.8125,499.3125 L 347.625,496.5625 L 346.125,495.625 L 345.59375,496.46875 z M 358.8125,505.4375 L 359.21875,505.75 L 359.21875,505.71875 L 363.03125,508.5625 L 365.1875,510.25 L 365.8125,509.4375 L 363.65625,507.78125 L 363.625,507.78125 L 359.8125,504.9375 L 359.8125,504.90625 L 359.40625,504.625 L 358.8125,505.4375 z M 371.40625,515.25 L 373.75,517.1875 L 373.78125,517.21875 L 377.09375,520.09375 L 377.125,520.09375 L 377.46875,520.4375 L 378.15625,519.6875 L 377.78125,519.34375 L 374.40625,516.4375 L 372.0625,514.46875 L 371.40625,515.25 z M 383.375,525.8125 L 383.46875,525.875 L 386.46875,528.78125 L 386.46875,528.75 L 389.125,531.375 L 389.8125,530.65625 L 387.15625,528.0625 L 387.15625,528.03125 L 384.15625,525.15625 L 384.0625,525.09375 L 383.375,525.8125 z M 394.65625,537.125 L 394.8125,537.28125 L 397.375,540.0625 L 399.84375,542.78125 L 399.84375,542.8125 L 400.03125,543 L 400.78125,542.375 L 400.59375,542.125 L 398.125,539.375 L 395.5625,536.59375 L 395.375,536.4375 L 394.65625,537.125 z M 405.21875,549.09375 L 408.59375,553.21875 L 408.59375,553.25 L 410.1875,555.3125 L 411,554.71875 L 409.375,552.625 L 405.96875,548.46875 L 405.21875,549.09375 z M 415,561.71875 L 415.625,562.59375 L 418.53125,566.75 L 419.5625,568.25 L 420.375,567.71875 L 419.375,566.1875 L 416.4375,562 L 415.78125,561.125 L 415,561.71875 z M 423.84375,574.96875 L 424.84375,576.59375 L 427.09375,580.5 L 427.8125,581.875 L 428.71875,581.40625 L 427.96875,580.03125 L 427.96875,580 L 425.71875,576.09375 L 425.6875,576.0625 L 424.71875,574.46875 L 423.84375,574.96875 z "/>
      <path id="path2205" style="fill: rgb(255, 0, 0); fill-rule: evenodd; stroke: rgb(0, 0, 0); stroke-width: 0.8pt; marker-start: none;" d="M 423.75318,572.73021 L 418.37814,570.96697 L 428.26792,581.65305 L 425.51641,567.35518 L 423.75318,572.73021 z "/>
    </g>
    <g style="fill: rgb(0, 255, 0);" id="g3256" transform="matrix(1.3122, 0, 0, 0.762082, -220.812, -300.313)">
      <path id="path3258" style="fill: rgb(0, 255, 0); fill-opacity: 1; fill-rule: evenodd; stroke: none; stroke-width: 1; stroke-linecap: butt; stroke-linejoin: miter; stroke-miterlimit: 4; stroke-dasharray: 8, 8; stroke-dashoffset: 0pt; stroke-opacity: 1;" d="M 209.65625,458.28125 L 216.875,458.375 L 216.90625,458.375 L 217.0625,458.40625 L 217.09375,457.40625 L 216.9375,457.375 L 216.90625,457.375 L 209.6875,457.28125 L 209.65625,458.28125 z M 225.03125,458.71875 L 230.9375,459.09375 L 233,459.28125 L 233.09375,458.28125 L 231.03125,458.09375 L 231,458.09375 L 225.09375,457.71875 L 225.03125,458.71875 z M 240.96875,460.03125 L 244.4375,460.4375 L 244.46875,460.4375 L 248.875,461.0625 L 249,460.0625 L 244.59375,459.4375 L 244.5625,459.4375 L 241.0625,459.0625 L 240.96875,460.03125 z M 256.78125,462.3125 L 257.4375,462.40625 L 263.71875,463.59375 L 263.75,463.59375 L 264.59375,463.78125 L 264.8125,462.8125 L 263.9375,462.625 L 257.625,461.4375 L 257.59375,461.4375 L 256.9375,461.3125 L 256.78125,462.3125 z M 272.40625,465.5625 L 275.90625,466.40625 L 275.9375,466.40625 L 280.125,467.53125 L 280.375,466.5625 L 276.1875,465.4375 L 276.15625,465.4375 L 272.625,464.5625 L 272.40625,465.5625 z M 287.78125,469.75 L 293.25,471.53125 L 295.375,472.28125 L 295.6875,471.3125 L 293.5625,470.59375 L 293.5625,470.5625 L 288.09375,468.8125 L 287.78125,469.75 z M 302.875,475 L 304.15625,475.5 L 304.15625,475.46875 L 309.40625,477.625 L 309.40625,477.59375 L 310.28125,477.96875 L 310.65625,477.0625 L 309.8125,476.6875 L 309.78125,476.6875 L 304.53125,474.5625 L 304.5,474.5625 L 303.21875,474.0625 L 302.875,475 z M 317.59375,481.21875 L 319.5625,482.125 L 324.46875,484.5 L 324.78125,484.65625 L 325.21875,483.78125 L 324.90625,483.625 L 320,481.21875 L 318,480.3125 L 317.59375,481.21875 z M 331.84375,488.375 L 333.875,489.5 L 333.875,489.46875 L 338.40625,492.0625 L 338.78125,492.3125 L 339.3125,491.4375 L 338.90625,491.21875 L 334.375,488.625 L 334.34375,488.625 L 332.3125,487.5 L 331.84375,488.375 z M 345.59375,496.46875 L 347.09375,497.40625 L 351.25,500.15625 L 351.25,500.125 L 352.28125,500.84375 L 352.84375,500.03125 L 351.8125,499.3125 L 347.625,496.5625 L 346.125,495.625 L 345.59375,496.46875 z M 358.8125,505.4375 L 359.21875,505.75 L 359.21875,505.71875 L 363.03125,508.5625 L 365.1875,510.25 L 365.8125,509.4375 L 363.65625,507.78125 L 363.625,507.78125 L 359.8125,504.9375 L 359.8125,504.90625 L 359.40625,504.625 L 358.8125,505.4375 z M 371.40625,515.25 L 373.75,517.1875 L 373.78125,517.21875 L 377.09375,520.09375 L 377.125,520.09375 L 377.46875,520.4375 L 378.15625,519.6875 L 377.78125,519.34375 L 374.40625,516.4375 L 372.0625,514.46875 L 371.40625,515.25 z M 383.375,525.8125 L 383.46875,525.875 L 386.46875,528.78125 L 386.46875,528.75 L 389.125,531.375 L 389.8125,530.65625 L 387.15625,528.0625 L 387.15625,528.03125 L 384.15625,525.15625 L 384.0625,525.09375 L 383.375,525.8125 z M 394.65625,537.125 L 394.8125,537.28125 L 397.375,540.0625 L 399.84375,542.78125 L 399.84375,542.8125 L 400.03125,543 L 400.78125,542.375 L 400.59375,542.125 L 398.125,539.375 L 395.5625,536.59375 L 395.375,536.4375 L 394.65625,537.125 z M 405.21875,549.09375 L 408.59375,553.21875 L 408.59375,553.25 L 410.1875,555.3125 L 411,554.71875 L 409.375,552.625 L 405.96875,548.46875 L 405.21875,549.09375 z M 415,561.71875 L 415.625,562.59375 L 418.53125,566.75 L 419.5625,568.25 L 420.375,567.71875 L 419.375,566.1875 L 416.4375,562 L 415.78125,561.125 L 415,561.71875 z M 423.84375,574.96875 L 424.84375,576.59375 L 427.09375,580.5 L 427.8125,581.875 L 428.71875,581.40625 L 427.96875,580.03125 L 427.96875,580 L 425.71875,576.09375 L 425.6875,576.0625 L 424.71875,574.46875 L 423.84375,574.96875 z "/>
      <path id="path3260" style="fill: rgb(0, 255, 0); fill-rule: evenodd; stroke: rgb(0, 0, 0); stroke-width: 0.8pt; marker-start: none;" d="M 423.75318,572.73021 L 418.37814,570.96697 L 428.26792,581.65305 L 425.51641,567.35518 L 423.75318,572.73021 z "/>
    </g>
    <path d="M 220.4659,51.837321 C 220.42166,54.629786 220.44158,57.422781 220.44706,60.215463 C 220.452,61.732636 220.45366,63.249816 220.45654,64.766993 L 213.54346,64.766993 C 213.54634,63.249816 213.548,61.732636 213.55294,60.215463 C 213.55842,57.422781 213.57834,54.629786 213.5341,51.837321 L 220.4659,51.837321 z " id="path3858" style="fill: rgb(0, 255, 0); fill-opacity: 1;"/>
    <path d="M 229.74007,51.792961 C 229.69583,54.585421 229.71575,57.378421 229.72123,60.171101 C 229.72617,61.688271 229.72783,63.205451 229.73071,64.722631 L 222.81763,64.722631 C 222.82051,63.205451 222.82217,61.688271 222.82711,60.171101 C 222.83259,57.378421 222.85251,54.585421 222.80827,51.792961 L 229.74007,51.792961 z " id="path3940" style="fill: rgb(0, 255, 0); fill-opacity: 1;"/>
    <path d="M 193.67762,93.512258 C 193.63338,96.304719 193.6533,99.097719 193.65878,101.8904 C 193.66372,103.40757 193.66538,104.92475 193.66826,106.44193 L 186.75518,106.44193 C 186.75806,104.92475 186.75972,103.40757 186.76466,101.8904 C 186.77014,99.097719 186.79006,96.304719 186.74582,93.512258 L 193.67762,93.512258 z " id="path3942" style="fill: rgb(255, 0, 0); fill-opacity: 1;"/>
    <path d="M 137.81619,136.64577 C 137.77195,139.43823 137.79187,142.23123 137.79735,145.02391 C 137.80229,146.54108 137.80395,148.05826 137.80683,149.57544 L 130.89375,149.57544 C 130.89663,148.05826 130.89829,146.54108 130.90323,145.02391 C 130.90871,142.23123 130.92863,139.43823 130.88439,136.64577 L 137.81619,136.64577 z " id="path3944" style="fill: rgb(255, 0, 0); fill-opacity: 1;"/>
  </g>
</svg>