<?xml version="1.0" encoding="UTF-8" standalone="no"?>
<!-- Created by User:AtomCrusher for the English Wikipedia -->
<svg xmlns="http://www.w3.org/2000/svg" width="888" height="475" viewBox="0 0 888 475">
	<path d="m735.06 237.21c0 130.62-101.52 236.5-226.74 236.5-125.23 0-226.74-105.88-226.74-236.5 0-130.62 101.52-236.5 226.74-236.5 125.23 0 226.74 105.88 226.74 236.5z" style="fill:none;stroke-width:2;stroke:#000"/>
	<path d="m697 237.21c0 110-84.48 199.18-188.68 199.18-104.21 0-188.68-89.17-188.68-199.18 0-110 84.48-199.18 188.68-199.18 104.21 0 188.68 89.17 188.68 199.18z" style="fill:none;stroke-width:2;stroke:#000"/>
	<path d="m658.71 237.21c0 87.95-67.34 159.25-150.4 159.25-83.07 0-150.4-71.3-150.4-159.25 0-87.95 67.34-159.25 150.4-159.25 83.07 0 150.4 71.3 150.4 159.25z" style="fill:none;stroke-width:2;stroke:#000"/>
	<path d="m627.14 237.21c0 68.46-53.2 123.97-118.83 123.97-65.63 0-118.83-55.5-118.83-123.97 0-68.46 53.2-123.97 118.83-123.97 65.63 0 118.83 55.5 118.83 123.97z" style="fill:none;stroke-width:2;stroke:#000"/>
	<path d="m600.07 237.21c0 49-41.08 88.73-91.76 88.73-50.68 0-91.76-39.73-91.76-88.73 0-49 41.08-88.73 91.76-88.73 50.68 0 91.76 39.73 91.76 88.73z" style="fill:none;stroke-width:2;stroke:#000"/>
	<path d="m573.07 237.21c0 34.72-28.99 62.87-64.76 62.87-35.77 0-64.76-28.15-64.76-62.87 0-34.72 28.99-62.87 64.76-62.87 35.77 0 64.76 28.15 64.76 62.87z" style="fill:none;stroke-width:2;stroke:#000"/>
	<path d="m543.74 237.21c0 19.51-15.86 35.33-35.43 35.33-19.57 0-35.43-15.82-35.43-35.33 0-19.51 15.86-35.33 35.43-35.33 19.57 0 35.43 15.82 35.43 35.33z" style="fill:none;stroke-width:2;stroke:#000"/>
	<path d="m0.51 102.18c50.12 0 100.25 0 150.37 0 0 14.93 0 30.02 0 44.95-19.95 0-40.07 0-60.18 0 0 14.26 0 28.34 0 42.6 18.78 0 37.55 0 56.33 0 0 14.26 0 28.51 0 42.77-18.78 0-37.55 0-56.33 0 0 16.44 0 32.87 0 49.31 22.13 0 44.26 0 66.22 0 0 14.93 0 30.02 0 44.95-52.14 0-104.27 0-156.41 0 0-74.8 0-149.76 0-224.56" style="fill:#f00;stroke:#000"/>
	<path d="m290.87 246.58c-4.53-25.33-9.22-56.85-13.75-94.42-9.22 43.27-14.92 74.63-17.27 94.42 10.22 0 20.62 0 31.01 0m47.78-144.4c17.27 74.8 34.37 149.76 51.63 224.56-30.68 0-61.36 0-92.2 0-1.51-13.42-3.18-26.83-4.86-40.42-10.73 0-21.46 0-32.19 0-1.84 13.59-3.69 27-5.53 40.42-31.02 0-62.2 0-93.21 0 15.42-74.8 30.68-149.76 46.1-224.56 43.42 0 86.84 0 130.26 0z" style="fill:#f00;stroke:#000"/>
	<path d="m596.81 170.1c-28 0-55.83 0-83.82 0 0-5.54 0-11.07 0-16.6 0-7.72-1.01-12.75-3.19-14.93-2.18-2.01-5.7-3.19-10.73-3.19-5.36 0-9.39 1.51-12.24 4.36-2.68 2.85-4.19 7.38-4.19 13.25 0 7.38 1.51 13.08 4.53 16.94 2.85 3.69 11.57 8.22 25.48 13.58 40.23 15.43 65.55 28.18 75.94 37.9 10.56 9.9 15.76 25.83 15.76 47.97 0 15.93-2.85 27.67-8.71 35.39-5.7 7.55-17.1 13.75-33.53 18.95-16.6 5.2-35.87 7.71-57.84 7.71-24.31 0-44.76-2.85-61.69-8.89-17.27-5.87-28.33-13.42-33.7-22.64-5.36-9.06-7.88-22.14-7.88-38.91 0-4.87 0-9.73 0-14.76 27.83 0 55.82 0 83.82 0 0 9.23 0 18.28 0 27.34 0 8.55 1.17 13.92 3.52 16.26 2.35 2.35 6.54 3.69 12.4 3.69 6.03 0 10.56-1.68 13.58-4.69 2.68-3.02 4.19-7.54 4.19-13.58 0-13.08-2.68-21.8-8.22-25.83-5.87-4.02-19.78-10.9-42.24-20.46-22.46-9.56-37.39-16.6-44.59-20.96-7.21-4.36-13.24-10.4-17.94-17.95-5.03-7.72-7.38-17.61-7.38-29.52 0-17.11 3.52-29.85 10.39-37.73 6.54-7.88 17.44-14.09 32.69-18.78 15.26-4.36 33.36-6.54 54.82-6.54 23.47 0 43.59 2.52 60.02 7.38 16.43 4.86 27.49 11.07 32.86 18.45 5.36 7.38 7.88 20.13 7.88 37.9 0 3.02 0 6.04 0 8.89" style="fill:#f00;stroke:#000"/>
	<path d="m640.91 374.55c-4.52 0-8.22 0.67-11.41 1.84-3.02 1.17-5.38 2.85-6.72 5.03-1.34 2.18-2 5.54-2 10.07 0 3.18 0.5 5.87 1.5 7.88 0.84 2.01 2.18 3.67 3.69 4.85 1.34 1.18 4.54 3.01 9.06 5.69 4.69 2.52 7.55 4.37 8.72 5.38 1.18 1.17 1.69 3.51 1.69 7.04 0 1.51-0.34 2.7-0.84 3.53-0.67 0.84-1.5 1.34-2.84 1.34-1.17 0-2.03-0.33-2.53-1-0.5-0.67-0.66-2.2-0.66-4.38l0-7.38-17.28 0 0 4.03c0 4.53 0.51 7.87 1.69 10.38 1.01 2.52 3.36 4.56 6.88 6.07 3.52 1.68 7.7 2.35 12.72 2.35 4.53 0 8.4-0.69 11.75-2.03 3.52-1.34 5.86-3.02 7.03-5.03 1.17-2.18 1.69-5.18 1.69-9.54 0-5.87-1.01-10.24-3.19-12.76-2.18-2.68-7.38-6.03-15.6-10.22-2.85-1.51-4.69-2.68-5.19-3.69-0.67-1.01-1-2.52-1-4.53 0-1.51 0.31-2.66 0.81-3.5 0.67-0.84 1.53-1.19 2.53-1.19 1.01 0 1.85 0.34 2.19 0.84 0.5 0.67 0.66 2.02 0.66 4.03l0 4.5 17.28 0c0-0.84-0.03-1.66-0.03-2.5 0-4.7-0.48-8.05-1.66-10.07-1.01-2.01-3.37-3.7-6.72-5.03-3.36-1.34-7.53-2-12.22-2zm-638.21 1.34 0 60.19 32.01 0 0-12.07-13.56 0 0-13.26 11.56 0 0-11.38-11.56 0 0-11.41 12.41 0 0-12.07-30.85 0zm431.17 0c-3.19 20.12-6.38 40.07-9.56 60.19l19.13 0c0.5-3.69 0.82-7.22 1.16-10.91l6.72 0c0.33 3.69 0.67 7.22 1 10.91l18.78 0c-3.52-20.12-7.04-40.07-10.56-60.19l-26.66 0zm39.88 0 0 60.19 18.28 0 0-60.19-18.28 0zm105.61 4.19 0 7.88-3.84 0 0 7.72 3.84 0 0 25.14c0 4.86 0.16 8.05 0.5 9.22 0.17 1.34 1.03 2.53 2.38 3.53 1.34 1.18 2.84 1.83 4.69 2 1.68 0.34 4.51 0.5 8.53 0.5l7.22 0 0-8.04c-2.85 0-4.54-0.17-4.88-0.5-0.5-0.34-0.66-2.19-0.66-5.38l0-26.48 4.84 0 0-7.72-4.84 0 0-7.88-17.78 0zm172.69 0 0 7.88-3.88 0 0 7.72 3.88 0 0 25.14c0 4.86 0.16 8.05 0.5 9.22 0.33 1.34 1.16 2.53 2.5 3.53 1.17 1.18 2.86 1.83 4.53 2 1.67 0.34 4.53 0.5 8.72 0.5l7.03 0 0-8.04c-2.85 0-4.51-0.17-4.84-0.5-0.34-0.34-0.69-2.19-0.69-5.38l0-26.48 4.88 0 0-7.72-4.88 0 0-7.88-17.75 0zm-683.81 5.69c-2.51 0-4.69 0.52-6.53 1.53-1.84 0.84-3.53 2.35-4.88 4.19 0-1.68 0.19-3.21 0.19-4.72l-17.44 0 0 49.31 17.25 0 0-34.21 0-4.69c0-0.67 0.36-1.34 1.03-1.84 0.5-0.5 1.16-0.84 2-0.84 1.17 0 2.01 0.5 2.34 1.5 0.17 1.01 0.34 3.86 0.34 8.72l0 31.36 17.25 0 0-32.21c0-4.19 0.16-6.87 0.5-7.88 0.34-1 1.19-1.5 2.53-1.5 1.18 0 2.01 0.5 2.34 1.5 0.33 1.01 0.5 3.69 0.5 7.88l0 32.21 17.25 0 0-35.05c0-4.02-0.34-7.04-0.84-8.72-0.67-1.84-1.83-3.35-3.84-4.69-2.01-1.17-4.51-1.84-7.53-1.84-2.18 0-4.38 0.52-6.22 1.53-1.84 0.84-3.52 2.35-5.03 4.19-2.85-3.86-6.52-5.72-11.22-5.72zm59.85 0c-4.02 0-7.7 0.69-10.72 2.03-3.18 1.34-5.53 3.18-6.88 5.69-1.34 2.52-2.03 5.87-2.03 10.22l0 14.41c0 3.69 0.34 6.54 0.84 8.38 0.67 1.85 1.83 3.71 3.34 5.22 1.68 1.68 3.87 2.84 6.72 3.85 2.85 1 6.21 1.34 10.06 1.34 3.86 0 7.02-0.5 9.53-1.34 2.68-1 4.7-2.34 6.38-4.19 1.68-1.85 2.69-3.68 3.19-5.19 0.5-1.68 0.69-4.02 0.69-7.04l0-3.69-16.78 0 0 6.54c0 2.35-0.32 4.01-0.66 4.85-0.5 0.84-1.35 1.34-2.69 1.34-1.17 0-1.84-0.33-2.34-1-0.34-0.5-0.5-2.01-0.5-4.19l0-10.73 22.97 0 0-6.57c0-4.87-0.67-8.54-1.84-11.23-1.34-2.52-3.69-4.68-6.88-6.19-3.19-1.67-7.38-2.53-12.41-2.53zm55.32 0c-5.03 0.34-8.74 2.85-11.25 7.38 0.17-2.01 0.52-4.2 0.69-6.38-5.87 0-11.91 0-17.78 0l0 49.31 17.78 0 0-19.45c0-4.86 0.16-7.88 0.5-9.22 0.34-1.34 1.33-2.36 2.84-3.03 1.51-0.83 3.87-1.16 7.22-1.16l0-17.45zm15.41 0c-4.02 0-7.05 1.17-9.06 3.19-2.01 2.01-3 5.37-3 10.07l0 17.95c0 3.19 0.32 5.69 1.16 7.54 0.67 1.85 2.21 3.2 4.22 4.38 2.18 1.01 4.69 1.5 7.88 1.5 1.84 0 3.67-0.17 5.34-0.84 1.68-0.5 3.2-1.51 4.88-2.69l0 3.69c0 2.18-0.35 3.68-0.69 4.19-0.5 0.83-1.31 1.03-2.66 1.03-1.84 0-2.88-1.01-2.88-3.19l-17.25 0c0.17 4.7 1.86 7.86 5.38 9.54 3.35 1.68 7.87 2.53 13.56 2.53 4.69 0 8.55-0.5 11.56-1.34 3.02-1.01 5.35-2.17 7.03-3.85 1.68-1.68 2.7-3.37 3.03-4.88 0.17-1.34 0.34-4.71 0.34-9.91l0-37.9c-5.53 0-11.06 0-16.6 0-0.34 1.18-0.85 2.51-1.19 3.69-1.51-1.51-3-2.66-4.84-3.5-1.85-0.67-3.87-1.19-6.22-1.19zm54.32 0c-4.02 0-7.7 0.69-10.72 2.03-3.18 1.34-5.53 3.18-6.88 5.69-1.34 2.52-2.03 5.87-2.03 10.22l0 14.41c0 3.69 0.34 6.54 0.84 8.38 0.67 1.85 1.87 3.71 3.38 5.22 1.68 1.68 3.84 2.84 6.69 3.85 2.85 1 6.22 1.34 9.91 1.34 4.02 0 7.21-0.5 9.72-1.34 2.52-1 4.67-2.34 6.34-4.19 1.67-1.85 2.69-3.68 3.19-5.19 0.5-1.68 0.69-4.02 0.69-7.04l0-3.69-16.78 0 0 6.54c0 2.35-0.32 4.01-0.66 4.85-0.5 0.84-1.5 1.34-2.84 1.34-1.01 0-1.69-0.33-2.19-1-0.34-0.5-0.5-2.01-0.5-4.19l0-10.73 22.97 0c0-2.18 0-4.39 0-6.57 0-4.87-0.69-8.54-2.03-11.23-1.17-2.52-3.5-4.68-6.69-6.19-3.35-1.67-7.38-2.53-12.41-2.53zm55.82 0c-2.35 0-4.53 0.52-6.38 1.53-1.84 0.84-3.51 2.16-4.69 4 0-1.51 0.17-3.03 0.34-4.53l-18.13 0 0 49.31 17.78 0 0-33.36c0-3.69 0.16-6.04 0.5-6.88 0.17-0.84 1-1.34 2.34-1.34 1.18 0 1.85 0.52 2.19 1.19 0.17 0.84 0.34 2.84 0.34 6.19l0 34.21 17.75 0 0-34.55c0-4.36-0.18-7.38-0.84-9.22-0.5-1.84-1.68-3.35-3.69-4.69-2.01-1.17-4.52-1.84-7.53-1.84zm37.38 0c-4.53 0-8.53 0.86-11.72 2.53-3.35 1.68-5.37 3.68-6.38 5.69-1.17 2.18-1.5 5.37-1.5 9.57l0 13.91c0 4.86 0.5 8.54 1.84 11.23 1.17 2.51 3.17 4.52 6.19 6.03 2.85 1.51 6.88 2.19 11.91 2.19 3.86 0 7.19-0.49 9.88-1.5 2.68-1.17 4.86-2.68 6.53-4.69 1.51-2.01 2.54-4.22 2.88-6.07 0.34-2.01 0.5-5.02 0.5-8.88l-15.75 0 0 5.88c0 2.52-0.35 4.18-0.69 5.19-0.5 0.84-1.33 1.34-2.5 1.34-1 0-1.84-0.51-2.34-1.34-0.5-0.84-0.69-2.17-0.69-3.85l0-23.33c0-2.18 0.17-3.52 0.5-4.19 0.34-0.67 1.02-1 2.03-1 1.01 0 1.65 0.35 2.16 1.19 0.34 0.67 0.5 1.99 0.5 4l0 5.72 16.78 0c0-4.7-0.51-8.24-1.69-10.76-1.01-2.51-3.18-4.67-6.53-6.35-3.18-1.67-7.22-2.53-11.91-2.53zm171.34 0c-4.19 0-7.72 0.69-10.91 2.03-3.18 1.34-5.38 3.18-6.72 5.69-1.51 2.52-2.16 5.87-2.16 10.22l0 14.41c0 3.69 0.33 6.54 1 8.38 0.5 1.85 1.67 3.71 3.34 5.22 1.51 1.68 3.87 2.84 6.72 3.85 2.85 1 6.19 1.34 9.88 1.34 3.86 0 7.04-0.5 9.72-1.34 2.51-1 4.54-2.34 6.22-4.19 1.68-1.85 2.84-3.68 3.34-5.19 0.33-1.68 0.66-4.02 0.66-7.04l0-3.69-16.91 0 0 6.54c0 2.35-0.19 4.01-0.69 4.85-0.5 0.84-1.35 1.34-2.69 1.34-1.17 0-1.82-0.33-2.16-1-0.5-0.5-0.69-2.01-0.69-4.19l0-10.73 23.13 0c0-2.18 0-4.39 0-6.57 0-4.87-0.66-8.54-2-11.23-1.34-2.52-3.69-4.68-6.88-6.19-3.18-1.67-7.36-2.53-12.22-2.53zm55.13 0c-4.86 0.34-8.71 2.85-11.22 7.38 0.17-2.01 0.49-4.2 0.66-6.38-5.87 0-11.89 0-17.75 0l0 49.31 17.75 0 0-19.45c0-4.86 0.16-7.88 0.5-9.22 0.34-1.34 1.36-2.36 2.88-3.03 1.51-0.83 3.84-1.16 7.19-1.16l0-17.45zm152.9 0c-3.86 0-7.2 0.52-10.22 1.53-2.85 1-5.05 2.51-6.22 4.35-1.34 2.01-1.84 4.86-1.84 8.72 0 2.85 0.51 5.18 1.69 7.19 1.17 2.01 4.34 4.38 9.53 6.72 6.21 3.02 9.75 4.71 10.25 5.38 0.67 0.5 1 2 1 4.35 0 1.68-0.18 2.84-0.69 3.35-0.5 0.67-1.31 0.84-2.66 0.84-1.17 0-2.04-0.32-2.38-1.16-0.34-0.84-0.66-2.54-0.66-5.22l0-3-15.6 0 0 2.35c0 4.02 0.52 7.04 1.69 9.22 1.17 2.01 3.5 3.5 6.69 4.85 3.19 1.17 7.07 1.69 11.6 1.69 4.02 0 7.53-0.51 10.38-1.69 2.85-1.01 5.02-2.68 6.19-4.69 1.17-2.01 1.84-5.01 1.84-9.04 0-3.69-0.83-6.38-2.34-8.22-1.68-1.84-5.02-3.85-10.22-6.03-3.86-1.68-6.38-2.85-7.72-3.69-1.17-0.84-1.99-1.68-2.16-2.35-0.34-0.67-0.34-1.87-0.34-3.38 0-1 0.18-1.83 0.69-2.5 0.5-0.5 1.34-0.84 2.34-0.84 1.17 0 1.99 0.33 2.16 1 0.33 0.67 0.5 2.03 0.5 4.38l0 2.66 15.75 0c0-1 0-2.01 0-2.85 0-2.52-0.16-4.36-0.5-5.53-0.17-1.18-1.16-2.34-2.5-3.85-1.51-1.34-3.7-2.35-6.38-3.19-2.68-0.84-6.02-1.34-9.88-1.34zm71.92 0c-4.02 0-7.73 0.69-10.75 2.03-3.18 1.34-5.34 3.18-6.85 5.69-1.34 2.52-2.03 5.87-2.03 10.22l0 14.41c0 3.69 0.33 6.54 1 8.38 0.5 1.85 1.7 3.71 3.38 5.22 1.51 1.68 3.68 2.84 6.53 3.85 2.85 1 6.21 1.34 10.06 1.34 3.86 0 7.02-0.5 9.53-1.34 2.68-1 4.7-2.34 6.38-4.19 1.68-1.85 2.69-3.68 3.19-5.19 0.5-1.68 0.66-4.02 0.66-7.04l0-3.69-16.75 0 0 6.54c0 2.35-0.15 4.01-0.66 4.85-0.5 0.84-1.34 1.34-2.69 1.34-1.17 0-1.85-0.33-2.19-1-0.5-0.5-0.66-2.01-0.66-4.19l0-10.73 22.94 0c0-2.18 0-4.39 0-6.57 0-4.87-0.67-8.54-1.84-11.23-1.34-2.52-3.66-4.68-6.85-6.19-3.18-1.67-7.38-2.53-12.41-2.53zm55.64 0c-2.35 0-4.52 0.52-6.53 1.53-1.84 0.84-3.5 2.35-4.84 4.19 0-1.68 0.14-3.21 0.31-4.72l-17.6 0 0 49.31 17.28 0 0-34.21 0-4.69c0.17-0.67 0.33-1.34 1-1.84 0.5-0.5 1.16-0.84 2-0.84 1.34 0 2.01 0.5 2.34 1.5 0.17 1.01 0.34 3.86 0.34 8.72l0 31.36 17.25 0 0-32.21c0-4.19 0.19-6.87 0.69-7.88 0.34-1 1-1.5 2.34-1.5 1.17 0 2.01 0.5 2.34 1.5 0.34 1.01 0.5 3.69 0.5 7.88l0 32.21 17.28 0 0-35.05c0-4.02-0.34-7.04-0.84-8.72-0.67-1.84-1.86-3.35-3.88-4.69-2.01-1.17-4.35-1.84-7.53-1.84-2.18 0-4.34 0.52-6.19 1.53-1.84 0.84-3.52 2.35-5.03 4.19-2.68-3.86-6.56-5.72-11.25-5.72zm-485.15 1c3.19 13.75 6.37 27.52 9.72 41.27 0.67 3.02 1.03 4.69 1.03 5.19 0 0.67-0.35 1.16-1.19 1.5-0.84 0.16-2.52 0.34-5.38 0.34l0 7.88 10.75 0c5.03 0 8.53-0.33 10.88-1 2.18-0.51 3.88-1.5 5.22-2.85 1.17-1.34 2.15-3.01 2.66-5.19 0.5-2.02 1.19-5.88 2.03-11.41 1.68-11.91 3.36-23.83 5.03-35.74-5.36 0-10.57 0-15.94 0-1 11.06-2 22.14-3 33.21-1.84-11.07-3.88-22.14-5.72-33.21l-16.1 0zm296.55 0c3.19 13.75 6.37 27.52 9.72 41.27 0.67 3.02 1.03 4.69 1.03 5.19 0 0.67-0.35 1.16-1.19 1.5-0.84 0.16-2.53 0.34-5.38 0.34l0 7.88 10.75 0c5.03 0 8.53-0.33 10.88-1 2.18-0.51 3.88-1.5 5.22-2.85 1.17-1.34 2.15-3.01 2.66-5.19 0.5-2.02 1.19-5.88 2.03-11.41 1.68-11.91 3.36-23.83 5.03-35.74-5.36 0-10.74 0-15.94 0-1.01 11.06-2.01 22.14-2.84 33.21-2.01-11.07-4.03-22.14-5.88-33.21l-16.1 0zm-216.76 2.53c0.84 10.07 1.87 18.45 2.88 25.33l-6.38 0c0.33-5.37 1.66-13.75 3.5-25.33zm-319 5.19c1.01 0 1.66 0.52 2 1.19 0.34 0.84 0.5 2.32 0.5 5l0 3.53-5.19 0 0-3.53c0-2.85 0.16-4.52 0.5-5.19 0.17-0.67 1.01-1 2.19-1zm78.45 0c1.01 0 1.66 0.33 2 1 0.34 0.67 0.5 2.03 0.5 4.38l0 15.26c0 2.69-0.16 4.51-0.5 5.35-0.34 0.84-1.17 1.19-2.34 1.19-1.01 0-1.66-0.33-2-1-0.34-0.67-0.5-2.01-0.5-4.19l0-16.6c0-2.18 0.15-3.52 0.66-4.19 0.33-0.84 1.18-1.19 2.19-1.19zm46.6 0c1 0 1.66 0.52 2 1.19 0.34 0.84 0.5 2.32 0.5 5l0 3.53-5.19 0 0-3.53c0-2.85 0.17-4.52 0.34-5.19 0.33-0.67 1.17-1 2.34-1zm264.36 0c1.17 0 1.66 0.52 2 1.19 0.34 0.84 0.5 2.32 0.5 5l0 3.53-5.19 0 0-3.53c0-2.85 0.16-4.52 0.5-5.19 0.34-0.67 1.02-1 2.19-1zm280.14 0c1 0 1.66 0.52 2 1.19 0.34 0.84 0.5 2.32 0.5 5l0 3.53-5.19 0 0-3.53c0-2.85 0.16-4.52 0.5-5.19 0.34-0.67 1.01-1 2.19-1z"/>
	<path d="m 741.29,53.75 51.63,56.35 -70.91,18.45 15.26,18.45 -66.72,16.94 13.41,14.76 -107.46,26.83 77.95,-57.19 -10.90,-12.41 57.50,-30.19 -11.40,-11.07 z" style="fill:#ffcc00;stroke:#000;stroke-width:2" />
</svg>